<?xml version="1.0" encoding="UTF-8"?>
<svg version="1.1" xmlns="http://www.w3.org/2000/svg" width="438" height="273">
<path d="M0 0 C0 0.66 0 1.32 0 2 C-1.34191406 2.74443359 -1.34191406 2.74443359 -2.7109375 3.50390625 C-14.08280841 9.86893595 -24.36888831 16.17147132 -32.69360352 26.42163086 C-33.56518906 27.47466778 -34.46206461 28.50726748 -35.38256836 29.51782227 C-39.43554783 33.99857474 -42.35311834 38.70911318 -45.125 44.0625 C-45.55876953 44.89668457 -45.99253906 45.73086914 -46.43945312 46.59033203 C-49.96793285 53.5709928 -52.40909397 60.31370399 -54 68 C-54.22171875 69.04027344 -54.4434375 70.08054687 -54.671875 71.15234375 C-58.95953775 94.5896354 -54.54594359 119.41369405 -41.6875 139.60546875 C-34.36289033 149.99895423 -24.46098254 163.72766313 -12 168 C-12 168.66 -12 169.32 -12 170 C-11.30519531 170.27070313 -10.61039063 170.54140625 -9.89453125 170.8203125 C-7.91574087 171.62678307 -5.95482886 172.47818287 -4.01171875 173.3671875 C20.47885701 184.47572128 46.74560842 186.09311567 72.14404297 176.74267578 C76.14589968 175.14130139 79.95454392 173.18534886 83.7421875 171.13671875 C86 170 86 170 88 170 C88 169.34 88 168.68 88 168 C90.1171875 166.4921875 90.1171875 166.4921875 92.875 164.875 C93.77992188 164.33617187 94.68484375 163.79734375 95.6171875 163.2421875 C98 162 98 162 100 162 C95.13232995 173.9479174 77.57951288 182.17553204 66.22558594 187.12744141 C41.24160203 196.92261017 13.83372581 196.62951771 -10.9140625 186.40625 C-35.18594609 175.34564482 -54.87142741 156.55486632 -64.72436523 131.53027344 C-72.33344234 110.9216815 -74.00625716 88.29491176 -68 67 C-67.73316406 65.99582031 -67.46632812 64.99164063 -67.19140625 63.95703125 C-63.40866864 51.2302207 -56.72249511 39.93835807 -48 30 C-47.41347656 29.29359375 -46.82695313 28.5871875 -46.22265625 27.859375 C-39.34942498 19.69254238 -12.07520601 -6.03760301 0 0 Z " fill="#3D7AE7" transform="translate(112,44)"/>
<path d="M0 0 C3 0 6 0 9 0 C10.12897705 -0.12125244 11.2579541 -0.24250488 12.42114258 -0.36743164 C16 0 16 0 18.29174805 2.45922852 C18.94183838 3.58772217 19.59192871 4.71621582 20.26171875 5.87890625 C20.61966019 6.48379379 20.97760162 7.08868134 21.34638977 7.7118988 C22.48493036 9.64882287 23.58609864 11.60426574 24.6875 13.5625 C25.43838511 14.85359488 26.19161857 16.14332702 26.94726562 17.43164062 C28.99492071 20.93759721 31.00088658 24.46610488 33 28 C33.37283112 28.63050262 33.74566223 29.26100525 34.12979126 29.91061401 C37 34.79021313 37 34.79021313 37 37 C37.66 37 38.32 37 39 37 C39.33 25.12 39.66 13.24 40 1 C41.32 1 42.64 1 44 1 C44 4.3 44 7.6 44 11 C44.66 11 45.32 11 46 11 C45.98839844 10.28972656 45.97679687 9.57945312 45.96484375 8.84765625 C45.95582031 7.92855469 45.94679687 7.00945312 45.9375 6.0625 C45.92589844 5.14597656 45.91429687 4.22945312 45.90234375 3.28515625 C46 1 46 1 47 0 C48.98 0 50.96 0 53 0 C53.495 9.405 53.495 9.405 54 19 C55.711875 17.14375 57.42375 15.2875 59.1875 13.375 C59.71625732 12.80313965 60.24501465 12.2312793 60.78979492 11.64208984 C63.18297859 9.03885313 65.50081096 6.40860041 67.7265625 3.66015625 C70 1 70 1 72.1875 0.0625 C74 0 74 0 76 1 C76 3 76 3 73.75 5.3125 C72.8425 6.199375 71.935 7.08625 71 8 C70.01 9.2375 70.01 9.2375 69 10.5 C67 13 67 13 64.25 15.5625 C61.54781326 17.93700003 61.54781326 17.93700003 62 22 C63.61654103 24.48473756 65.25490344 26.7878788 67.0625 29.125 C68.0710178 30.46431294 69.07882891 31.80415832 70.0859375 33.14453125 C70.5819043 33.7988916 71.07787109 34.45325195 71.58886719 35.12744141 C73.49720688 37.65978837 75.35272769 40.22645261 77.1875 42.8125 C78.01314453 43.96685547 78.01314453 43.96685547 78.85546875 45.14453125 C80 47 80 47 80 49 C77.46235419 49.93986882 76.20611803 50.06045326 73.57519531 49.28881836 C70.61802757 47.80883272 69.41091337 46.41928721 67.484375 43.75390625 C66.87335938 42.91666016 66.26234375 42.07941406 65.6328125 41.21679688 C65.01148438 40.34087891 64.39015625 39.46496094 63.75 38.5625 C62.79480469 37.25442383 62.79480469 37.25442383 61.8203125 35.91992188 C57.15371955 29.46115866 57.15371955 29.46115866 56 26 C55.01 26.495 55.01 26.495 54 27 C53.67 34.26 53.34 41.52 53 49 C50.69 49 48.38 49 46 49 C46 37.12 46 25.24 46 13 C45.34 13 44.68 13 44 13 C44 24.88 44 36.76 44 49 C41.69 49 39.38 49 37 49 C34.76953125 46.640625 34.76953125 46.640625 32.8125 43.25 C32.4501123 42.6410791 32.08772461 42.0321582 31.71435547 41.40478516 C30.90735859 40.04409222 30.11176442 38.67659337 29.32568359 37.30371094 C27.34378336 33.85965741 25.28705079 30.46144425 23.23706055 27.05761719 C22.1769005 25.29341325 21.12220783 23.52591022 20.07348633 21.75488281 C19.58775146 20.93600586 19.1020166 20.11712891 18.6015625 19.2734375 C18.17182129 18.54560059 17.74208008 17.81776367 17.29931641 17.06787109 C15.98048745 14.96894563 14.48732217 12.98309623 13 11 C13 23.54 13 36.08 13 49 C11.515 49.495 11.515 49.495 10 50 C7.20822431 47.20822431 7.68786516 45.36816428 7.5859375 41.4609375 C7.54726562 40.15898437 7.50859375 38.85703125 7.46875 37.515625 C7.43729237 36.13542138 7.40604509 34.75521296 7.375 33.375 C7.33682066 31.98695459 7.29776895 30.59893289 7.2578125 29.2109375 C7.16327057 25.80742815 7.07772103 22.40392835 7 19 C7.00523682 19.73114014 7.01047363 20.46228027 7.01586914 21.21557617 C7.03670161 24.53954198 7.04968014 27.86349403 7.0625 31.1875 C7.07087891 32.33798828 7.07925781 33.48847656 7.08789062 34.67382812 C7.09111328 35.78564453 7.09433594 36.89746094 7.09765625 38.04296875 C7.10289307 39.06414795 7.10812988 40.08532715 7.11352539 41.13745117 C7.00519467 43.86901616 6.61706868 46.34169374 6 49 C4.68 48.67 3.36 48.34 2 48 C2 47.34 2 46.68 2 46 C1.34 46 0.68 46 0 46 C-1.70534441 42.58931119 -1.14147137 38.69326219 -1.1328125 34.94140625 C-1.13376923 34.04131332 -1.13472595 33.1412204 -1.13571167 32.21385193 C-1.13639286 30.30817597 -1.13454281 28.40249769 -1.13037109 26.49682617 C-1.12502821 23.57790919 -1.13031493 20.65914651 -1.13671875 17.74023438 C-1.13605784 15.89062466 -1.1347764 14.04101504 -1.1328125 12.19140625 C-1.13584885 10.87880577 -1.13584885 10.87880577 -1.13894653 9.53968811 C-1.13579437 8.72551926 -1.13264221 7.9113504 -1.12939453 7.07250977 C-1.12859894 6.35684341 -1.12780334 5.64117706 -1.12698364 4.90382385 C-1 3 -1 3 0 0 Z " fill="#1B4EA9" transform="translate(150,126)"/>
<path d="M0 0 C0 0.66 0 1.32 0 2 C-1.34191406 2.74443359 -1.34191406 2.74443359 -2.7109375 3.50390625 C-14.08280841 9.86893595 -24.36888831 16.17147132 -32.69360352 26.42163086 C-33.56518906 27.47466778 -34.46206461 28.50726748 -35.38256836 29.51782227 C-39.43554783 33.99857474 -42.35311834 38.70911318 -45.125 44.0625 C-45.55876953 44.89668457 -45.99253906 45.73086914 -46.43945312 46.59033203 C-54.64659294 62.82714316 -56.18488252 80.08886587 -57 98 C-59 99 -59 99 -62 99 C-63.08544537 95.62394564 -62.91916849 92.93850956 -62.5 89.4375 C-62.09442793 86.04083393 -61.9055991 84.28320271 -63 81 C-64.65 81 -66.3 81 -68 81 C-68.33 79.68 -68.66 78.36 -69 77 C-69.33 86.57 -69.66 96.14 -70 106 C-70.33 106 -70.66 106 -71 106 C-71.32322109 92.6584279 -71.61324299 79.95136448 -68 67 C-67.73316406 65.99453125 -67.46632812 64.9890625 -67.19140625 63.953125 C-63.40410897 51.22780614 -56.7228055 39.93871172 -48 30 C-47.41347656 29.29359375 -46.82695313 28.5871875 -46.22265625 27.859375 C-39.34942498 19.69254238 -12.07520601 -6.03760301 0 0 Z " fill="#194288" transform="translate(112,44)"/>
<path d="M0 0 C0.36076355 2.9359436 0.36076355 2.9359436 0.34057617 6.74462891 C0.34101425 7.43742447 0.34145233 8.13022003 0.34190369 8.8440094 C0.33981032 11.13847851 0.31645468 13.43222074 0.29296875 15.7265625 C0.28737471 17.31553752 0.28310371 18.90451771 0.28010559 20.49349976 C0.26864158 24.67922203 0.23916131 28.86463286 0.20599365 33.05023193 C0.17532611 37.31990343 0.16160737 41.58962516 0.14648438 45.859375 C0.11429284 54.23972639 0.06307803 62.61982447 0 71 C0.59762146 70.83544815 1.19524292 70.6708963 1.81097412 70.50135803 C4.77250154 69.82307205 7.48193576 69.99698828 10.515625 70.12109375 C11.76601562 70.16943359 13.01640625 70.21777344 14.3046875 70.26757812 C15.60664063 70.32365234 16.90859375 70.37972656 18.25 70.4375 C19.56742188 70.48970703 20.88484375 70.54191406 22.2421875 70.59570312 C25.49503428 70.72534557 28.74757167 70.86031156 32 71 C32.5625 72.9375 32.5625 72.9375 33 75 C32 76 32 76 28.03100586 76.11352539 C26.25894393 76.1133662 24.4868774 76.10766785 22.71484375 76.09765625 C21.78402481 76.0962413 20.85320587 76.09482635 19.8941803 76.09336853 C16.90858809 76.08775172 13.92306971 76.0751964 10.9375 76.0625 C8.91862087 76.05748716 6.89974057 76.05292388 4.88085938 76.04882812 C-0.07945572 76.03777683 -5.03971532 76.02050095 -10 76 C-11.0109694 67.22639614 -11.13170352 58.52985951 -11.09765625 49.70703125 C-11.09578639 48.26543731 -11.09436518 46.82384273 -11.09336853 45.38224792 C-11.08958803 41.62586651 -11.07979705 37.86952504 -11.06866455 34.11315918 C-11.05835324 30.26489807 -11.05385029 26.41663038 -11.04882812 22.56835938 C-11.03816981 15.0455549 -11.02114852 7.52278309 -11 0 C-3.375 -2.25 -3.375 -2.25 0 0 Z " fill="#2354A7" transform="translate(116,99)"/>
<path d="M0 0 C0.66 0.33 1.32 0.66 2 1 C2 1.66 2 2.32 2 3 C3.65 3 5.3 3 7 3 C8.26154321 7.98171441 7.66214408 12.30929023 7.05859375 17.35546875 C7.03925781 18.22816406 7.01992188 19.10085937 7 20 C7.66 20.66 8.32 21.32 9 22 C9.66 21.01 10.32 20.02 11 19 C11 19.66 11 20.32 11 21 C11.66 21 12.32 21 13 21 C13.21914063 22.19753906 13.43828125 23.39507812 13.6640625 24.62890625 C17.60353355 45.21657344 24.89893377 62.89893377 40 78 C40 78.99 40 79.98 40 81 C39.34 81 38.68 81 38 81 C37.773125 80.443125 37.54625 79.88625 37.3125 79.3125 C36.0443215 76.83933456 36.0443215 76.83933456 33.6875 74.6875 C31.11529806 72.11529806 29.14908325 69.54148712 27.11328125 66.55078125 C25.95006894 64.84203414 25.95006894 64.84203414 24 63 C23.01 63.99 23.01 63.99 22 65 C22.185625 65.5775 22.37125 66.155 22.5625 66.75 C23.21982232 70.13051481 21.64914564 72.09750367 20 75 C19.67 74.01 19.34 73.02 19 72 C18.01 72.495 18.01 72.495 17 73 C17.66 74.65 18.32 76.3 19 78 C6.34077769 66.83009796 -0.34865559 46.5293837 -2 30 C-2.28893446 19.95865732 -1.33249877 9.94159953 0 0 Z " fill="#2E61BB" transform="translate(43,121)"/>
<path d="M0 0 C-3.44446341 8.454592 -12.6048145 13.30739361 -20 18 C-20.57057129 18.37125 -21.14114258 18.7425 -21.72900391 19.125 C-34.05842553 26.9288724 -48.55835635 29.31687814 -63 30 C-64.33895871 29.69003476 -65.67480217 29.36433447 -67 29 C-67.495 29.495 -67.495 29.495 -68 30 C-73.70803693 30.38506598 -79.35398898 29.93537993 -85.015625 29.22265625 C-87.35344401 28.96034191 -89.64977172 28.92418618 -92 29 C-92 28.34 -92 27.68 -92 27 C-93.216875 27.04125 -94.43375 27.0825 -95.6875 27.125 C-99.21894127 27.13754508 -101.80003566 26.59998217 -105 25 C-105 24.01 -105 23.02 -105 22 C-104.34 22 -103.68 22 -103 22 C-102.67 21.34 -102.34 20.68 -102 20 C-101.01268258 18.65724831 -100.01405257 17.32267727 -99 16 C-97.89140625 16.27714844 -96.7828125 16.55429688 -95.640625 16.83984375 C-94.93679687 17.01580078 -94.23296875 17.19175781 -93.5078125 17.37304688 C-92.01822917 17.74544271 -90.52864583 18.11783854 -89.0390625 18.49023438 C-87.97558594 18.75610352 -87.97558594 18.75610352 -86.890625 19.02734375 C-83 20 -83 20 -81.07202148 20.5480957 C-61.21645279 24.87856084 -34.65981401 20.08319892 -17.1328125 9.80859375 C-14 8 -14 8 -12 8 C-12 7.34 -12 6.68 -12 6 C-9.8828125 4.4921875 -9.8828125 4.4921875 -7.125 2.875 C-6.22007812 2.33617187 -5.31515625 1.79734375 -4.3828125 1.2421875 C-2 0 -2 0 0 0 Z " fill="#417FEA" transform="translate(212,206)"/>
<path d="M0 0 C0.93005859 -0.02900391 1.86011719 -0.05800781 2.81835938 -0.08789062 C9.02740794 -0.14461419 13.80441307 0.66139473 18.9375 4.3125 C23.00164035 8.37786875 24.73772212 12.35751778 25.0703125 18.109375 C24.77314082 23.03892872 22.73473833 26.3644328 19.625 30.0625 C14.32320827 34.50120935 9.89241038 35.75810708 3.0625 35.5 C2.37414062 35.48646484 1.68578125 35.47292969 0.9765625 35.45898438 C-0.70347001 35.4239837 -2.3830935 35.37018954 -4.0625 35.3125 C-3.88847656 36.38628906 -3.71445312 37.46007812 -3.53515625 38.56640625 C-3.04936186 42.41662791 -3.36472747 45.51351621 -4.0625 49.3125 C-6.3725 49.3125 -8.6825 49.3125 -11.0625 49.3125 C-11.0877689 42.49488106 -11.10533244 35.67727411 -11.11743164 28.85961914 C-11.12247333 26.53832549 -11.12930651 24.21703503 -11.13793945 21.89575195 C-11.15001225 18.56721205 -11.15572979 15.23871398 -11.16015625 11.91015625 C-11.16531754 10.86537613 -11.17047882 9.82059601 -11.17579651 8.74415588 C-11.17587204 7.78323532 -11.17594757 6.82231476 -11.17602539 5.83227539 C-11.178246 4.98178116 -11.18046661 4.13128693 -11.18275452 3.25502014 C-10.87437913 -1.72629302 -3.77830442 0.03816469 0 0 Z M-4.0625 4.3125 C-4.0625 13.2225 -4.0625 22.1325 -4.0625 31.3125 C6.99284525 31.78683767 6.99284525 31.78683767 14.1875 26.1875 C16.57297467 22.26850589 17.25859401 18.88613182 16.9375 14.3125 C15.7213118 10.38443872 13.67052401 7.86673766 10.375 5.375 C5.78558841 3.77110517 5.78558841 3.77110517 -4.0625 4.3125 Z " fill="#2854A4" transform="translate(282.0625,125.6875)"/>
<path d="M0 0 C2.4375 0.1875 2.4375 0.1875 3.4375 1.1875 C3.54816096 3.54033105 3.59910728 5.86873166 3.61328125 8.22265625 C3.6365052 9.68686293 3.66062354 11.15105564 3.68554688 12.61523438 C3.72047268 14.92351257 3.74989026 17.23128635 3.76342773 19.53979492 C3.71162341 31.45846153 3.71162341 31.45846153 8.4375 42.1875 C10.84834119 44.46057884 12.3234037 45.12560576 15.6171875 45.30859375 C19.7927114 45.09639499 21.81522229 44.79382187 24.875 41.8125 C25.390625 40.94625 25.90625 40.08 26.4375 39.1875 C27.0975 38.1975 27.7575 37.2075 28.4375 36.1875 C28.6419927 33.60161522 28.73842562 31.11421021 28.74609375 28.52734375 C28.77124084 26.99674077 28.79663904 25.4661419 28.82226562 23.93554688 C28.85108081 21.52369129 28.8751015 19.1119067 28.89379883 16.69995117 C28.91538093 14.37121849 28.95479788 12.04329778 28.99609375 9.71484375 C28.99620956 8.99086899 28.99632538 8.26689423 28.9964447 7.52098083 C29.03686523 5.48803711 29.03686523 5.48803711 29.4375 2.1875 C30.4275 1.5275 31.4175 0.8675 32.4375 0.1875 C35.83588476 5.47815767 34.61175764 12.11151737 34.43579102 18.14892578 C34.37557158 20.41598182 34.35203003 22.68151245 34.33007812 24.94921875 C34.03079966 39.71077003 34.03079966 39.71077003 28.4375 45.1875 C25.625 46.6875 25.625 46.6875 23.4375 47.1875 C23.4375 47.8475 23.4375 48.5075 23.4375 49.1875 C18.15063103 50.94978966 12.19139642 51.54621049 7.078125 49.0234375 C2.40468349 45.59741835 -1.69816251 41.78051247 -3.5625 36.1875 C-3.73940717 33.62790282 -3.86762136 31.09010947 -3.94921875 28.52734375 C-3.97474319 27.78166641 -4.00026764 27.03598907 -4.02656555 26.26771545 C-4.07850861 24.69344843 -4.12794326 23.11909693 -4.17504883 21.54467773 C-4.24983888 19.13020149 -4.34043392 16.71663912 -4.43164062 14.30273438 C-4.48013871 12.77346802 -4.52769688 11.2441715 -4.57421875 9.71484375 C-4.60327805 8.99086899 -4.63233734 8.26689423 -4.66227722 7.52098083 C-4.70717313 5.74340969 -4.64383112 3.96377702 -4.5625 2.1875 C-2.5625 0.1875 -2.5625 0.1875 0 0 Z " fill="#1E4EA6" transform="translate(235.5625,125.8125)"/>
<path d="M0 0 C2.46060345 3.02843502 4.87203778 6.09389512 7.25 9.1875 C8.03117187 10.19876953 8.03117187 10.19876953 8.828125 11.23046875 C10 13 10 13 10 15 C11.32 15.66 12.64 16.32 14 17 C14 17.99 14 18.98 14 20 C14.66 20 15.32 20 16 20 C16.33 19.34 16.66 18.68 17 18 C18.32477959 19.04714924 19.63443746 20.11344669 20.9375 21.1875 C21.66839844 21.77917969 22.39929688 22.37085938 23.15234375 22.98046875 C25.34471 25.37677604 25.86669341 26.76987871 26 30 C23.86087578 32.94852257 21.56962967 35.43037033 19 38 C18.34 37.34 17.68 36.68 17 36 C16.175 35.731875 15.35 35.46375 14.5 35.1875 C12 34 12 34 10.6875 31.5 C10 29 10 29 10 27 C9.4225 27.2475 8.845 27.495 8.25 27.75 C7.13625 27.87375 7.13625 27.87375 6 28 C4.0625 26.25 4.0625 26.25 2 24 C0.34738161 22.97695052 -1.31791365 21.97383946 -3 21 C-5.09782787 18.90217213 -5.6509396 17.6200793 -6.625 14.875 C-6.88539062 14.15054688 -7.14578125 13.42609375 -7.4140625 12.6796875 C-7.70410156 11.84824219 -7.70410156 11.84824219 -8 11 C-6.68 11.33 -5.36 11.66 -4 12 C-2.38050989 9.42786866 -1.95591249 8.32330841 -2.375 5.25 C-2.58125 4.5075 -2.7875 3.765 -3 3 C-2.34 3 -1.68 3 -1 3 C-0.67 2.01 -0.34 1.02 0 0 Z " fill="#3771D6" transform="translate(67,182)"/>
<path d="M0 0 C3.52474053 2.23233567 4.87845163 3.97693347 6 8 C5.57421875 11.3046875 5.57421875 11.3046875 4.6875 14.875 C2.81738604 22.57546923 1.85003447 30.04524212 1.4375 37.9375 C1.39431641 38.71673828 1.35113281 39.49597656 1.30664062 40.29882812 C1.20171923 42.19907117 1.1004755 44.09951669 1 46 C-1 47 -1 47 -4 47 C-5.08544537 43.62394564 -4.91916849 40.93850956 -4.5 37.4375 C-4.09442793 34.04083393 -3.9055991 32.28320271 -5 29 C-6.65 29 -8.3 29 -10 29 C-10.33 27.68 -10.66 26.36 -11 25 C-11.33 34.57 -11.66 44.14 -12 54 C-12.33 54 -12.66 54 -13 54 C-13.32417007 40.61925689 -13.50223571 28.00830407 -10 15 C-9.77183594 14.00226563 -9.54367188 13.00453125 -9.30859375 11.9765625 C-7.69556434 5.54287949 -7.69556434 5.54287949 -4.4375 3 C-3.633125 2.67 -2.82875 2.34 -2 2 C-1.34 1.34 -0.68 0.68 0 0 Z " fill="#244E98" transform="translate(54,96)"/>
<path d="M0 0 C1.99954746 -0.04254356 4.00041636 -0.04080783 6 0 C7.80707581 1.80707581 7.42307598 4.55383475 7.625 7 C7.72039062 8.093125 7.81578125 9.18625 7.9140625 10.3125 C7.94242188 11.199375 7.97078125 12.08625 8 13 C7.67 13.33 7.34 13.66 7 14 C6.92433506 16.16023401 6.91694185 18.32291403 6.9375 20.484375 C6.94128662 21.13698303 6.94507324 21.78959106 6.94897461 22.4619751 C6.9653447 25.26151121 6.99330355 28.060903 7.02050781 30.86035156 C7.03867425 32.90168575 7.05072438 34.94299549 7.0625 36.984375 C7.07410156 38.20866211 7.08570313 39.43294922 7.09765625 40.69433594 C7.01158416 43.60787607 6.67994614 46.17447579 6 49 C4.68 48.67 3.36 48.34 2 48 C2 47.34 2 46.68 2 46 C1.34 46 0.68 46 0 46 C-1.70534441 42.58931119 -1.14147137 38.69326219 -1.1328125 34.94140625 C-1.13376923 34.04131332 -1.13472595 33.1412204 -1.13571167 32.21385193 C-1.13639286 30.30817597 -1.13454281 28.40249769 -1.13037109 26.49682617 C-1.12502821 23.57790919 -1.13031493 20.65914651 -1.13671875 17.74023438 C-1.13605784 15.89062466 -1.1347764 14.04101504 -1.1328125 12.19140625 C-1.13584885 10.87880577 -1.13584885 10.87880577 -1.13894653 9.53968811 C-1.13579437 8.72551926 -1.13264221 7.9113504 -1.12939453 7.07250977 C-1.12859894 6.35684341 -1.12780334 5.64117706 -1.12698364 4.90382385 C-1 3 -1 3 0 0 Z " fill="#1F50AB" transform="translate(150,126)"/>
<path d="M0 0 C0.33 0 0.66 0 1 0 C2.125 7.75 2.125 7.75 1 10 C0.92966231 11.87379605 0.9156978 13.75001102 0.9375 15.625 C0.94652344 16.62789062 0.95554687 17.63078125 0.96484375 18.6640625 C0.97644531 19.43492187 0.98804687 20.20578125 1 21 C3.31 20.34 5.62 19.68 8 19 C8.33 21.31 8.66 23.62 9 26 C24.84 26.495 24.84 26.495 41 27 C41.495 28.98 41.495 28.98 42 31 C41 32 41 32 37.03100586 32.11352539 C35.25894393 32.1133662 33.4868774 32.10766785 31.71484375 32.09765625 C30.78402481 32.0962413 29.85320587 32.09482635 28.8941803 32.09336853 C25.90858809 32.08775172 22.92306971 32.0751964 19.9375 32.0625 C17.91862087 32.05748716 15.89974057 32.05292388 13.88085938 32.04882812 C8.92054428 32.03777683 3.96028468 32.02050095 -1 32 C-1.7198679 25.4454133 -2.10325024 19.20417216 -1.625 12.625 C-1.58117187 11.95339844 -1.53734375 11.28179687 -1.4921875 10.58984375 C-1.23761962 6.99053679 -0.80151954 3.51853491 0 0 Z " fill="#3263C0" transform="translate(107,143)"/>
<path d="M0 0 C0 0.66 0 1.32 0 2 C-1.34191406 2.74443359 -1.34191406 2.74443359 -2.7109375 3.50390625 C-14.08298531 9.86903497 -24.31271951 16.17692413 -32.67578125 26.38671875 C-34.1398541 28.17038272 -35.62781591 29.93154335 -37.125 31.6875 C-37.60195312 32.24824219 -38.07890625 32.80898437 -38.5703125 33.38671875 C-39.99043798 34.98921007 -41.47051611 36.50219182 -43 38 C-41.48778456 30.10287492 -36.6932357 24.50172012 -31 19 C-33.97670763 19.74378388 -33.97670763 19.74378388 -35.5625 21.5625 C-36.036875 22.036875 -36.51125 22.51125 -37 23 C-37.66 23 -38.32 23 -39 23 C-39 23.66 -39 24.32 -39 25 C-40.65 25.33 -42.3 25.66 -44 26 C-38.07342324 17.98169027 -10.80529722 -5.40264861 0 0 Z " fill="#1F3F77" transform="translate(112,44)"/>
<path d="M0 0 C-4.40688828 10.8169076 -18.67644544 17.55733829 -28.625 22.625 C-29.31182861 22.97989502 -29.99865723 23.33479004 -30.70629883 23.70043945 C-35.62929569 26.1235681 -35.62929569 26.1235681 -39 25 C-39.99 25 -40.98 25 -42 25 C-42.7425 24.690625 -43.485 24.38125 -44.25 24.0625 C-47.48295152 22.81340509 -50.56821396 22.40373953 -54 22 C-54 21.67 -54 21.34 -54 21 C-52.16501953 20.70609375 -52.16501953 20.70609375 -50.29296875 20.40625 C-38.32336391 18.33451858 -27.77144369 14.91514938 -16.76733398 9.78442383 C-15 9 -15 9 -12 8 C-12 7.34 -12 6.68 -12 6 C-9.8828125 4.4921875 -9.8828125 4.4921875 -7.125 2.875 C-6.22007812 2.33617187 -5.31515625 1.79734375 -4.3828125 1.2421875 C-2 0 -2 0 0 0 Z " fill="#457FDD" transform="translate(212,206)"/>
<path d="M0 0 C0.66 0.33 1.32 0.66 2 1 C3.27875211 8.50674848 3.09128781 15.97162989 2.875 23.5625 C2.8646875 24.74263672 2.854375 25.92277344 2.84375 27.13867188 C2.63928644 34.16514087 1.97868864 39.72098342 -3 45 C-5.75 46.375 -5.75 46.375 -8 47 C-8.33 47.66 -8.66 48.32 -9 49 C-10.65 48.67 -12.3 48.34 -14 48 C-13.01 47.505 -13.01 47.505 -12 47 C-12 46.34 -12 45.68 -12 45 C-11.2575 44.5875 -10.515 44.175 -9.75 43.75 C-6.29970239 41.55435606 -4.9703827 39.58523871 -3 36 C-2.6204838 33.21688117 -2.44112882 30.82048501 -2.4609375 28.046875 C-2.44914459 27.3054425 -2.43735168 26.56401001 -2.42520142 25.80010986 C-2.39010959 23.44985574 -2.38078465 21.10049418 -2.375 18.75 C-2.35865989 16.38549041 -2.33667879 14.02137649 -2.30337524 11.65704346 C-2.28372988 10.19031001 -2.27441207 8.72339434 -2.27645874 7.25653076 C-2.22348659 2.22348659 -2.22348659 2.22348659 0 0 Z " fill="#4165A8" transform="translate(267,126)"/>
<path d="M0 0 C1.98 0 3.96 0 6 0 C6.33 6.27 6.66 12.54 7 19 C8.32 18.34 9.64 17.68 11 17 C10.01 19.475 10.01 19.475 9 22 C7.35 21.67 5.7 21.34 4 21 C4 19.35 4 17.7 4 16 C3.01 16 2.02 16 1 16 C0.67 26.56 0.34 37.12 0 48 C1.65 48 3.3 48 5 48 C5 40.74 5 33.48 5 26 C5.33 26 5.66 26 6 26 C6 33.59 6 41.18 6 49 C3.69 49 1.38 49 -1 49 C-1.02505615 47.91992676 -1.0501123 46.83985352 -1.07592773 45.72705078 C-1.16995572 41.72757688 -1.27018754 37.72827853 -1.37231445 33.72900391 C-1.4156808 31.99662374 -1.45735463 30.26420037 -1.49731445 28.53173828 C-1.55497594 26.04446373 -1.61868198 23.55740707 -1.68359375 21.0703125 C-1.70030624 20.29317902 -1.71701874 19.51604553 -1.73423767 18.71536255 C-1.76473429 14.72725784 -1.76473429 14.72725784 -3 11 C-2.34 11 -1.68 11 -1 11 C-1.01160156 10.28972656 -1.02320313 9.57945312 -1.03515625 8.84765625 C-1.04417969 7.92855469 -1.05320313 7.00945312 -1.0625 6.0625 C-1.07410156 5.14597656 -1.08570313 4.22945312 -1.09765625 3.28515625 C-1 1 -1 1 0 0 Z " fill="#244D98" transform="translate(197,126)"/>
<path d="M0 0 C0.33 0.99 0.66 1.98 1 3 C1.66 3 2.32 3 3 3 C2.83701416 3.65250732 2.67402832 4.30501465 2.50610352 4.97729492 C1.86869122 8.78424216 1.87627867 12.51686345 1.90234375 16.36328125 C1.9037587 17.15526413 1.90517365 17.94724701 1.90663147 18.76322937 C1.91220543 21.27969219 1.92475307 23.79606431 1.9375 26.3125 C1.94251837 28.02408725 1.94708069 29.73567591 1.95117188 31.44726562 C1.96216632 35.63154508 1.97941293 39.81575719 2 44 C0.515 44.495 0.515 44.495 -1 45 C-3.94473649 42.05526351 -3.39434408 38.84306892 -3.484375 34.88671875 C-3.5084845 34.08015335 -3.53259399 33.27358795 -3.55743408 32.44258118 C-3.6057742 30.73374166 -3.64915645 29.02475585 -3.68798828 27.31567383 C-3.74952032 24.70782987 -3.83264975 22.1013019 -3.91796875 19.49414062 C-3.96224828 17.83336776 -4.00525813 16.17256047 -4.046875 14.51171875 C-4.08575836 13.3458448 -4.08575836 13.3458448 -4.12542725 12.15641785 C-4.20325879 7.99183046 -4.03679587 4.68582055 -2 1 C-1.34 0.67 -0.68 0.34 0 0 Z " fill="#2D5EB3" transform="translate(161,131)"/>
<path d="M0 0 C0.99 0.33 1.98 0.66 3 1 C4.2259283 11.29319568 3.92171134 21.42190644 3.5625 31.75 C3.5091386 33.4296677 3.45639981 35.10935529 3.40429688 36.7890625 C3.27669716 40.85963968 3.14071288 44.92985589 3 49 C0.69 49 -1.62 49 -4 49 C-4.33 48.34 -4.66 47.68 -5 47 C-2.69 47.33 -0.38 47.66 2 48 C2 46.68 2 45.36 2 44 C1.01 44 0.02 44 -1 44 C-2.19928547 39.36739777 -2.05522486 34.97321846 -1.9140625 30.234375 C-1.89282318 29.4003717 -1.87158386 28.56636841 -1.84970093 27.70709229 C-1.8035952 25.95211464 -1.75468067 24.19720881 -1.703125 22.44238281 C-1.62487211 19.74559255 -1.55792309 17.04868381 -1.4921875 14.3515625 C-1.44598509 12.64581498 -1.39913301 10.94008491 -1.3515625 9.234375 C-1.33171295 8.42401794 -1.3118634 7.61366089 -1.29141235 6.77874756 C-1.11514781 1.11514781 -1.11514781 1.11514781 0 0 Z " fill="#2857A5" transform="translate(191,126)"/>
<path d="M0 0 C0.33 0.66 0.66 1.32 1 2 C1.99 2 2.98 2 4 2 C4 3.65 4 5.3 4 7 C6.31 7.66 8.62 8.32 11 9 C11 10.32 11 11.64 11 13 C9.35 13 7.7 13 6 13 C5.67 19.93 5.34 26.86 5 34 C3.35 34 1.7 34 0 34 C0 22.78 0 11.56 0 0 Z " fill="#1E53B4" transform="translate(197,140)"/>
<path d="M0 0 C2.49361571 1.20381448 4.68143083 2.45428722 7 4 C9.64632287 3.6878236 9.64632287 3.6878236 12 3 C12 5.33333333 12 7.66666667 12 10 C14.90600261 11.25664978 16.79604584 12 20 12 C22.7349101 9.06973918 24.72575695 6.82272915 26 3 C26.78375 3.474375 27.5675 3.94875 28.375 4.4375 C29.88948678 5.33898023 31.4235897 6.21179485 33 7 C33 7.66 33 8.32 33 9 C33.99 9.33 34.98 9.66 36 10 C34 11 34 11 32.0625 10.375 C31.381875 10.25125 30.70125 10.1275 30 10 C28.35405861 11.39588754 28.35405861 11.39588754 27 13 C26.34 13 25.68 13 25 13 C25.27034634 15.43717258 25.27034634 15.43717258 26 18 C26.99 18.66 27.98 19.32 29 20 C29 20.66 29 21.32 29 22 C17.48913037 18.69148657 7.77487318 9.84545392 0 1 C0 0.67 0 0.34 0 0 Z " fill="#3E7BE0" transform="translate(67,205)"/>
<path d="M0 0 C7.42857143 -0.28571429 7.42857143 -0.28571429 11 2 C11 2.66 11 3.32 11 4 C15.31196609 4.94324258 19.62065881 5.48041715 24 6 C24 6.66 24 7.32 24 8 C25.01320313 7.87431641 25.01320313 7.87431641 26.046875 7.74609375 C26.93890625 7.64425781 27.8309375 7.54242188 28.75 7.4375 C29.63171875 7.33308594 30.5134375 7.22867188 31.421875 7.12109375 C33.9316352 7.00321107 35.60084061 7.35896724 38 8 C39.68631394 8.06660008 41.37502687 8.08540688 43.0625 8.0625 C43.91972656 8.05347656 44.77695313 8.04445312 45.66015625 8.03515625 C46.81837891 8.01775391 46.81837891 8.01775391 48 8 C48.99 8 49.98 8 51 8 C53.89874318 7.70467799 56.79271053 7.39246388 59.6875 7.0625 C60.46544922 6.97548828 61.24339844 6.88847656 62.04492188 6.79882812 C67.03500236 6.23697586 72.01832656 5.63196086 77 5 C73.80676452 7.12882365 71.53182552 7.72968503 67.8125 8.5625 C66.72582031 8.81128906 65.63914062 9.06007812 64.51953125 9.31640625 C43.35926572 13.42633574 21.55222901 11.33174566 2 2 C1.34 1.34 0.68 0.68 0 0 Z " fill="#558ADA" transform="translate(96,227)"/>
<path d="M0 0 C1.9375 0.125 1.9375 0.125 4 1 C5.25 3.5625 5.25 3.5625 6 6 C6.66 4.02 7.32 2.04 8 0 C11.63 0 15.26 0 19 0 C19 0.99 19 1.98 19 3 C18.01 3.495 18.01 3.495 17 4 C16.34227572 7.02934491 16.34227572 7.02934491 16 10 C14.68 10 13.36 10 12 10 C12 7.69 12 5.38 12 3 C11.01 3 10.02 3 9 3 C8.67 5.97 8.34 8.94 8 12 C7.67 11.34 7.34 10.68 7 10 C6.01 10.33 5.02 10.66 4 11 C3.01 10.67 2.02 10.34 1 10 C0.01 10.33 -0.98 10.66 -2 11 C-2.66 10.67 -3.32 10.34 -4 10 C-3.52449439 8.51965236 -3.04448784 7.04074979 -2.5625 5.5625 C-2.29566406 4.73878906 -2.02882813 3.91507813 -1.75390625 3.06640625 C-1 1 -1 1 0 0 Z " fill="#344D8D" transform="translate(293,187)"/>
<path d="M0 0 C0.556875 0.7115625 0.556875 0.7115625 1.125 1.4375 C3.62646962 3.52205802 5.81593418 3.64621491 9 4 C9.8125 6.125 9.8125 6.125 10 9 C7.86087578 11.94852257 5.56962967 14.43037033 3 17 C2.34 16.34 1.68 15.68 1 15 C0.175 14.731875 -0.65 14.46375 -1.5 14.1875 C-4 13 -4 13 -5.5 10.8125 C-6.21788646 6.77438869 -4.96249377 4.51895435 -3 1 C-2.01 0.67 -1.02 0.34 0 0 Z " fill="#3A76DF" transform="translate(83,203)"/>
<path d="M0 0 C0.66 0.33 1.32 0.66 2 1 C2.03758423 2.24873901 2.03758423 2.24873901 2.07592773 3.52270508 C2.17112694 6.61462833 2.27035672 9.70638852 2.37231445 12.7980957 C2.43687006 14.79303319 2.4967783 16.78811929 2.55664062 18.78320312 C2.59853516 20.03681641 2.64042969 21.29042969 2.68359375 22.58203125 C2.72025146 23.73936768 2.75690918 24.8967041 2.79467773 26.08911133 C2.88328509 29.0643446 2.88328509 29.0643446 4 32 C3.34 32 2.68 32 2 32 C2 36.29 2 40.58 2 45 C1.01 45 0.02 45 -1 45 C-1.02527124 38.75204325 -1.04283344 32.50409959 -1.05493164 26.25610352 C-1.05997298 24.12881986 -1.06680591 22.00153969 -1.07543945 19.87426758 C-1.08751379 16.82372174 -1.09323014 13.77322155 -1.09765625 10.72265625 C-1.10281754 9.76537125 -1.10797882 8.80808624 -1.11329651 7.8217926 C-1.11337204 6.94095505 -1.11344757 6.06011749 -1.11352539 5.15258789 C-1.115746 4.37315323 -1.11796661 3.59371857 -1.12025452 2.79066467 C-1 1 -1 1 0 0 Z " fill="#114CB3" transform="translate(274,128)"/>
<path d="M0 0 C0.99 0.66 1.98 1.32 3 2 C3.34057617 3.97119141 3.34057617 3.97119141 3.29296875 6.3515625 C3.28330078 7.20234375 3.27363281 8.053125 3.26367188 8.9296875 C3.23853516 9.81914063 3.21339844 10.70859375 3.1875 11.625 C3.17396484 12.5221875 3.16042969 13.419375 3.14648438 14.34375 C3.11106925 16.56309789 3.06168461 18.78125188 3 21 C2.67 21 2.34 21 2 21 C1.67 16.38 1.34 11.76 1 7 C-0.65 6.67 -2.3 6.34 -4 6 C-5.25946067 7.03403803 -5.25946067 7.03403803 -5.09765625 9.28491211 C-5.08605469 10.27241455 -5.07445313 11.25991699 -5.0625 12.27734375 C-5.05476563 13.34791016 -5.04703125 14.41847656 -5.0390625 15.52148438 C-5.0130655 17.79492239 -4.98702398 20.06835989 -4.9609375 22.34179688 C-4.95320313 23.41365234 -4.94546875 24.48550781 -4.9375 25.58984375 C-4.92589844 26.57847412 -4.91429688 27.56710449 -4.90234375 28.58569336 C-5 31 -5 31 -6 33 C-6.66 33 -7.32 33 -8 33 C-8 22.77 -8 12.54 -8 2 C-5.36 1.34 -2.72 0.68 0 0 Z " fill="#1B3B76" transform="translate(113,97)"/>
<path d="M0 0 C0.33 0.66 0.66 1.32 1 2 C-0.69765965 6.90550733 -2.87563772 9.93998928 -7 13 C-8.21446022 15.2842188 -9.0833041 17.57075586 -10 20 C-9.01 19.67 -8.02 19.34 -7 19 C-6.67 19.99 -6.34 20.98 -6 22 C-5.34 21.67 -4.68 21.34 -4 21 C-3.34 21.66 -2.68 22.32 -2 23 C-2.99 25.31 -3.98 27.62 -5 30 C-7.75383923 28.62308038 -8.51483101 26.63279958 -10 24 C-10.78375 24.66 -11.5675 25.32 -12.375 26 C-15 28 -15 28 -17 28 C-15.61739525 23.38195977 -13.70964702 19.2879231 -11.3125 15.125 C-10.78946289 14.21016846 -10.78946289 14.21016846 -10.25585938 13.27685547 C-7.36343218 8.35109903 -4.03373793 4.0589488 0 0 Z " fill="#224A89" transform="translate(65,73)"/>
<path d="M0 0 C4.33333333 0 8.66666667 0 13 0 C13.28571429 7.42857143 13.28571429 7.42857143 11 11 C4.67164179 11.35820896 4.67164179 11.35820896 2.125 10 C0.32756466 6.8045594 0.29797286 3.63526893 0 0 Z " fill="#2D518C" transform="translate(425,187)"/>
<path d="M0 0 C0 0.66 0 1.32 0 2 C-1.44632813 2.81404297 -1.44632813 2.81404297 -2.921875 3.64453125 C-4.19799877 4.3670425 -5.47403588 5.08970683 -6.75 5.8125 C-7.38421875 6.16892578 -8.0184375 6.52535156 -8.671875 6.89257812 C-11.34662122 8.41105384 -13.87134247 9.90264338 -16.328125 11.76171875 C-18 13 -18 13 -20 13 C-20 12.34 -20 11.68 -20 11 C-19.34 11 -18.68 11 -18 11 C-18 10.34 -18 9.68 -18 9 C-18.83144531 9.55880859 -18.83144531 9.55880859 -19.6796875 10.12890625 C-20.40414062 10.60199219 -21.12859375 11.07507812 -21.875 11.5625 C-22.59429687 12.03816406 -23.31359375 12.51382813 -24.0546875 13.00390625 C-24.69664063 13.33261719 -25.33859375 13.66132812 -26 14 C-26.66 13.67 -27.32 13.34 -28 13 C-24.58161085 9.05025502 -20.74313379 7.10356732 -16.125 4.875 C-15.43019531 4.52824219 -14.73539063 4.18148437 -14.01953125 3.82421875 C-3.09294872 -1.54647436 -3.09294872 -1.54647436 0 0 Z " fill="#3E517B" transform="translate(112,44)"/>
<path d="M0 0 C0.87567627 0.34780518 0.87567627 0.34780518 1.76904297 0.70263672 C4.46768827 1.76877477 7.17123518 2.8219164 9.875 3.875 C10.7928125 4.23980469 11.710625 4.60460937 12.65625 4.98046875 C20.50415805 8.02015144 28.22962789 9.90539668 36.625 10.625 C37.88183594 10.73714844 37.88183594 10.73714844 39.1640625 10.8515625 C40.07285156 10.92503906 40.07285156 10.92503906 41 11 C41 11.33 41 11.66 41 12 C29.63814844 12.76168837 19.47522528 10.41271349 9 6 C8.773125 6.78375 8.54625 7.5675 8.3125 8.375 C7 11 7 11 4.5625 12.4375 C3.716875 12.623125 2.87125 12.80875 2 13 C1.01 12.34 0.02 11.68 -1 11 C-0.34 11 0.32 11 1 11 C1.33 10.34 1.66 9.68 2 9 C2.66 9.33 3.32 9.66 4 10 C3.360625 9.38125 2.72125 8.7625 2.0625 8.125 C0 6 0 6 -1 4 C-0.34 3.67 0.32 3.34 1 3 C0.67 2.01 0.34 1.02 0 0 Z " fill="#447AD2" transform="translate(104,216)"/>
<path d="M0 0 C0 2 0 2 -2.25 4.3125 C-3.1575 5.199375 -4.065 6.08625 -5 7 C-5.66 7.825 -6.32 8.65 -7 9.5 C-10.17465118 13.46831397 -13.21521622 17.05064364 -18 19 C-18.66723633 17.22729492 -18.66723633 17.22729492 -19 15 C-17.9519043 13.18481445 -17.9519043 13.18481445 -16.32421875 11.36328125 C-15.74349609 10.70392578 -15.16277344 10.04457031 -14.56445312 9.36523438 C-13.94505859 8.68783203 -13.32566406 8.01042969 -12.6875 7.3125 C-12.07970703 6.62349609 -11.47191406 5.93449219 -10.84570312 5.22460938 C-4.88042772 -1.46412832 -4.88042772 -1.46412832 0 0 Z " fill="#3D5FA3" transform="translate(226,127)"/>
<path d="M0 0 C1.99954746 -0.04254356 4.00041636 -0.04080783 6 0 C7 1 7 1 7.09765625 2.84765625 C7.04882812 5.92382812 7.04882812 5.92382812 7 9 C6.360625 9.103125 5.72125 9.20625 5.0625 9.3125 C4.0415625 9.6528125 4.0415625 9.6528125 3 10 C1.193865 15.418405 0.74618681 20.6498682 0.4375 26.3125 C0.39431641 27.05306641 0.35113281 27.79363281 0.30664062 28.55664062 C0.20129568 30.37091464 0.10021684 32.1854355 0 34 C-0.33 34 -0.66 34 -1 34 C-1.024727 29.64005933 -1.04287281 25.28015586 -1.05493164 20.92016602 C-1.05995903 19.43708587 -1.06678185 17.95401067 -1.07543945 16.47094727 C-1.08757482 14.33869199 -1.09324425 12.20650227 -1.09765625 10.07421875 C-1.10289307 8.79119873 -1.10812988 7.50817871 -1.11352539 6.1862793 C-1 3 -1 3 0 0 Z " fill="#1A499A" transform="translate(150,126)"/>
<path d="M0 0 C0.33 0 0.66 0 1 0 C1 9.24 1 18.48 1 28 C-1 29 -1 29 -4 29 C-5.19797961 25.35201696 -4.97275905 22.11453475 -4.6875 18.3125 C-4.60886719 17.15363281 -4.53023437 15.99476563 -4.44921875 14.80078125 C-4.30097656 13.87652344 -4.15273438 12.95226562 -4 12 C-3.34 11.67 -2.68 11.34 -2 11 C-2 9.68 -2 8.36 -2 7 C-1.34 7 -0.68 7 0 7 C0 4.69 0 2.38 0 0 Z " fill="#2556A6" transform="translate(54,114)"/>
<path d="M0 0 C-3.15061566 7.73332934 -11.26616313 12.63005433 -18 17 C-18.66 17 -19.32 17 -20 17 C-20.66 16.34 -21.32 15.68 -22 15 C-24.06874034 14.3574765 -24.06874034 14.3574765 -26 14 C-24.04414675 12.99515796 -22.08523763 11.99626195 -20.125 11 C-19.03445312 10.443125 -17.94390625 9.88625 -16.8203125 9.3125 C-14 8 -14 8 -12 8 C-12 7.34 -12 6.68 -12 6 C-9.8828125 4.4921875 -9.8828125 4.4921875 -7.125 2.875 C-6.22007812 2.33617187 -5.31515625 1.79734375 -4.3828125 1.2421875 C-2 0 -2 0 0 0 Z " fill="#5281CB" transform="translate(212,206)"/>
<path d="M0 0 C6.0546875 -0.1953125 6.0546875 -0.1953125 8 0 C10 2 10 2 10.3125 5.5 C10.1578125 7.2325 10.1578125 7.2325 10 9 C7 11 7 11 3.8125 10.625 C2.4203125 10.315625 2.4203125 10.315625 1 10 C0.67 10.66 0.34 11.32 0 12 C0 8.04 0 4.08 0 0 Z " fill="#3A5E99" transform="translate(263,187)"/>
<path d="M0 0 C0.66 0 1.32 0 2 0 C4.35511154 2.42437953 5.83035451 4.15177256 6.5 7.5 C5.83035451 10.84822744 4.35511154 12.57562047 2 15 C1.34 15 0.68 15 0 15 C0 14.34 0 13.68 0 13 C-0.639375 12.690625 -1.27875 12.38125 -1.9375 12.0625 C-4 11 -4 11 -5 10 C-5.30813578 7.07271007 -5.43574835 5.57439555 -3.625 3.1875 C-2 2 -2 2 0 2 C0 1.34 0 0.68 0 0 Z M-1 6 C0 10 0 10 0 10 Z " fill="#415A92" transform="translate(113,185)"/>
<path d="M0 0 C0.33 0.66 0.66 1.32 1 2 C1.763125 1.9175 2.52625 1.835 3.3125 1.75 C6 2 6 2 7.875 3.6875 C9 6 9 6 8.875 8.625 C8 11 8 11 5 13 C3.68 13 2.36 13 1 13 C0.67 13.66 0.34 14.32 0 15 C-1.99801607 11.71590462 -2.15166527 9.59852272 -1.6875 5.8125 C-1.58824219 4.93207031 -1.48898437 4.05164063 -1.38671875 3.14453125 C-1 1 -1 1 0 0 Z M3 5 C2.67 6.65 2.34 8.3 2 10 C2.66 10 3.32 10 4 10 C4 8.35 4 6.7 4 5 C3.67 5 3.34 5 3 5 Z " fill="#324D8A" transform="translate(413,185)"/>
<path d="M0 0 C2.65315971 2.37869491 2.98103345 3.67124653 3.1875 7.25 C3.125625 8.1575 3.06375 9.065 3 10 C0.20129973 11.39935013 -1.90498792 11.25265405 -5 11 C-6.9375 9.9375 -6.9375 9.9375 -8 8 C-7.8125 4.375 -7.8125 4.375 -7 1 C-4.4254716 -0.2872642 -2.85291355 -0.34791629 0 0 Z M-3 3 C-3 3.66 -3 4.32 -3 5 C-2.34 4.67 -1.68 4.34 -1 4 C-1.66 3.67 -2.32 3.34 -3 3 Z " fill="#325081" transform="translate(392,187)"/>
<path d="M0 0 C0.598125 0.165 1.19625 0.33 1.8125 0.5 C4.26897926 1.06148097 5.61239323 0.65865014 8 0 C9 1 9 1 9.09765625 3.06640625 C9.08605469 3.89011719 9.07445312 4.71382812 9.0625 5.5625 C9.05347656 6.38878906 9.04445312 7.21507812 9.03515625 8.06640625 C9.02355469 8.70449219 9.01195312 9.34257812 9 10 C5.25297715 11.03366148 2.77200794 11.25733598 -1 10 C-1.02689216 8.52093108 -1.04634621 7.04172517 -1.0625 5.5625 C-1.07410156 4.73878906 -1.08570312 3.91507813 -1.09765625 3.06640625 C-1 1 -1 1 0 0 Z " fill="#315390" transform="translate(124,187)"/>
<path d="M0 0 C0.598125 0.165 1.19625 0.33 1.8125 0.5 C4.26897926 1.06148097 5.61239323 0.65865014 8 0 C9 1 9 1 9.09765625 3.06640625 C9.08605469 3.89011719 9.07445312 4.71382812 9.0625 5.5625 C9.05347656 6.38878906 9.04445313 7.21507812 9.03515625 8.06640625 C9.02355469 8.70449219 9.01195312 9.34257812 9 10 C5.30581799 11.231394 2.7943739 10.64432764 -1 10 C-1.02689216 8.52093108 -1.04634621 7.04172517 -1.0625 5.5625 C-1.07410156 4.73878906 -1.08570313 3.91507813 -1.09765625 3.06640625 C-1 1 -1 1 0 0 Z " fill="#3B5D97" transform="translate(350,187)"/>
<path d="M0 0 C2 2 2 2 2.3125 5.5 C2.1578125 7.2325 2.1578125 7.2325 2 9 C-1.23253796 11.15502531 -2.25150923 11.46856135 -6 11 C-7.8125 9.8125 -7.8125 9.8125 -9 8 C-9.42822025 5.14519831 -9.40659584 3.65507108 -7.875 1.1875 C-5.16554166 -0.52849028 -3.13704316 -0.333728 0 0 Z M-4 3 C-4 4.65 -4 6.3 -4 8 C-3.34 7.67 -2.68 7.34 -2 7 C-2.33 5.68 -2.66 4.36 -3 3 C-3.33 3 -3.66 3 -4 3 Z " fill="#3A5989" transform="translate(220,187)"/>
<path d="M0 0 C1.65 0 3.3 0 5 0 C5 9.9 5 19.8 5 30 C4.67 30 4.34 30 4 30 C3.95101562 29.14535156 3.90203125 28.29070312 3.8515625 27.41015625 C3.77679688 26.30542969 3.70203125 25.20070312 3.625 24.0625 C3.52058594 22.40927734 3.52058594 22.40927734 3.4140625 20.72265625 C3.27742187 19.82417969 3.14078125 18.92570312 3 18 C2.34 17.67 1.68 17.34 1 17 C0.5859375 14.71484375 0.5859375 14.71484375 0.375 11.9375 C0.26285156 10.55884766 0.26285156 10.55884766 0.1484375 9.15234375 C0.09945312 8.44207031 0.05046875 7.73179687 0 7 C-0.33 7 -0.66 7 -1 7 C-1.04254356 5.00045254 -1.04080783 2.99958364 -1 1 C-0.67 0.67 -0.34 0.34 0 0 Z " fill="#1750B7" transform="translate(232,127)"/>
<path d="M0 0 C1.67004829 0.31595508 3.33637583 0.65179959 5 1 C6.32 1 7.64 1 9 1 C9 3.97 9 6.94 9 10 C5.30581799 11.231394 2.7943739 10.64432764 -1 10 C-1.02689216 8.52093108 -1.04634621 7.04172517 -1.0625 5.5625 C-1.07410156 4.73878906 -1.08570313 3.91507813 -1.09765625 3.06640625 C-1 1 -1 1 0 0 Z " fill="#2B508C" transform="translate(138,187)"/>
<path d="M0 0 C3.5625 0.1875 3.5625 0.1875 5.5625 2.1875 C5.83241906 4.87589385 5.64987357 7.47891936 5.5625 10.1875 C-1.1875 11.3125 -1.1875 11.3125 -3.4375 10.1875 C-3.88671875 8.15625 -3.88671875 8.15625 -4.125 5.6875 C-4.21136719 4.8728125 -4.29773438 4.058125 -4.38671875 3.21875 C-4.40347656 2.5484375 -4.42023438 1.878125 -4.4375 1.1875 C-3.4375 0.1875 -3.4375 0.1875 0 0 Z " fill="#395EA3" transform="translate(280.4375,186.8125)"/>
<path d="M0 0 C3.125 0.25 3.125 0.25 5 1.4375 C6.54729478 3.93036381 6.62905716 5.36967335 6.125 8.25 C3.92464984 10.61333906 2.65909321 11.20031691 -0.5625 11.5 C-2.875 11.25 -2.875 11.25 -3.875 10.25 C-3.9729057 8.75261876 -4.00474864 7.25057108 -4 5.75 C-4.00257813 4.9353125 -4.00515625 4.120625 -4.0078125 3.28125 C-3.79704928 0.05781253 -3.27564622 0.2848388 0 0 Z M0.125 4.25 C0.455 5.57 0.785 6.89 1.125 8.25 C1.455 7.26 1.785 6.27 2.125 5.25 C1.465 4.92 0.805 4.59 0.125 4.25 Z " fill="#3F5791" transform="translate(366.875,186.75)"/>
<path d="M0 0 C3.125 0.25 3.125 0.25 5 1.3125 C6.70696395 4.25227124 6.31299766 6.92870803 6.125 10.25 C-1.625 11.375 -1.625 11.375 -3.875 10.25 C-3.90189216 8.77093108 -3.92134621 7.29172517 -3.9375 5.8125 C-3.94910156 4.98878906 -3.96070313 4.16507813 -3.97265625 3.31640625 C-3.81881025 0.06102492 -3.2971828 0.28671155 0 0 Z " fill="#325797" transform="translate(401.875,186.75)"/>
<path d="M0 0 C0.66 0 1.32 0 2 0 C1.979375 0.94875 1.95875 1.8975 1.9375 2.875 C1.77448174 5.90666283 1.77448174 5.90666283 3 8 C2.85691406 8.84820312 2.71382812 9.69640625 2.56640625 10.5703125 C1.88190735 14.71507135 1.89133924 18.6850231 1.9375 22.875 C1.94201172 23.65875 1.94652344 24.4425 1.95117188 25.25 C1.96285907 27.16670014 1.98079092 29.08336048 2 31 C1.01 31 0.02 31 -1 31 C-1.02465622 26.74585377 -1.04283899 22.49174502 -1.05493164 18.23754883 C-1.05997101 16.78929927 -1.06680253 15.34105483 -1.07543945 13.89282227 C-1.08752247 11.81525412 -1.09323211 9.73775303 -1.09765625 7.66015625 C-1.10289307 6.40855713 -1.10812988 5.15695801 -1.11352539 3.86743164 C-1 1 -1 1 0 0 Z " fill="#0F4EB3" transform="translate(199,142)"/>
<path d="M0 0 C2.05078125 0.03255208 4.1015625 0.06510417 6.15234375 0.09765625 C6.15234375 2.76432292 6.15234375 5.43098958 6.15234375 8.09765625 C6.48234375 8.75765625 6.81234375 9.41765625 7.15234375 10.09765625 C4.4132903 11.46718298 2.18147043 11.22386986 -0.84765625 11.09765625 C-1.50765625 10.76765625 -2.16765625 10.43765625 -2.84765625 10.09765625 C-2.87454841 8.61858733 -2.89400246 7.13938142 -2.91015625 5.66015625 C-2.92175781 4.83644531 -2.93335938 4.01273438 -2.9453125 3.1640625 C-2.8198894 0.51010975 -2.66068535 0.14062819 0 0 Z " fill="#455884" transform="translate(317.84765625,186.90234375)"/>
<path d="M0 0 C0.33 0.99 0.66 1.98 1 3 C-2.75 4.125 -2.75 4.125 -5 3 C-4.67 3.99 -4.34 4.98 -4 6 C-2.68 5.67 -1.36 5.34 0 5 C0.33 5.66 0.66 6.32 1 7 C-0.77489599 9.24197388 -1.62175489 9.94326323 -4.5 10.375 C-7 10 -7 10 -8.8125 8.8125 C-10.42525784 6.35092224 -10.4334014 4.88934264 -10 2 C-7.58628749 -2.25949266 -4.24852727 -0.88176981 0 0 Z " fill="#39548F" transform="translate(173,188)"/>
<path d="M0 0 C0.33 0.99 0.66 1.98 1 3 C-2.75 4.125 -2.75 4.125 -5 3 C-4.67 3.99 -4.34 4.98 -4 6 C-2.68 5.67 -1.36 5.34 0 5 C0.33 5.66 0.66 6.32 1 7 C-0.125 8.5625 -0.125 8.5625 -2 10 C-5.64734979 9.77669287 -7.38372835 9.61627165 -10 7 C-10.35877543 4.20155166 -10.33812547 2.596692 -8.9375 0.125 C-5.88430685 -1.64782183 -3.33588292 -0.69235306 0 0 Z " fill="#39568C" transform="translate(207,188)"/>
<path d="M0 0 C1.5625 1.5 1.5625 1.5 3 4 C3.02328113 7.85690644 2.21445786 11.35662642 1 15 C0.34 14.67 -0.32 14.34 -1 14 C-1 18.62 -1 23.24 -1 28 C-1.66 28.33 -2.32 28.66 -3 29 C-3.02899599 25.22918278 -3.04679729 21.45839417 -3.0625 17.6875 C-3.07087891 16.61564453 -3.07925781 15.54378906 -3.08789062 14.43945312 C-3.09111328 13.41142578 -3.09433594 12.38339844 -3.09765625 11.32421875 C-3.10289307 10.37635498 -3.10812988 9.42849121 -3.11352539 8.4519043 C-3 6 -3 6 -2 3 C-1.34 3 -0.68 3 0 3 C0 2.01 0 1.02 0 0 Z " fill="#1145B7" transform="translate(155,133)"/>
<path d="M0 0 C0.33 0.66 0.66 1.32 1 2 C1.64453125 2.11214844 2.2890625 2.22429687 2.953125 2.33984375 C3.62859375 2.55769531 4.3040625 2.77554688 5 3 C6.046875 5.06640625 6.046875 5.06640625 6.75 7.5625 C6.99234375 8.38878906 7.2346875 9.21507812 7.484375 10.06640625 C7.65453125 10.70449219 7.8246875 11.34257812 8 12 C6.02 12 4.04 12 2 12 C1.67 12.66 1.34 13.32 1 14 C0.34 14 -0.32 14 -1 14 C-1 13.34 -1 12.68 -1 12 C-1.66 12 -2.32 12 -3 12 C-2.69230293 10.18667846 -2.37870936 8.37435655 -2.0625 6.5625 C-1.80146484 5.04849609 -1.80146484 5.04849609 -1.53515625 3.50390625 C-1 1 -1 1 0 0 Z " fill="#3B5994" transform="translate(338,185)"/>
<path d="M0 0 C1.134375 0.020625 2.26875 0.04125 3.4375 0.0625 C3.4375 1.3825 3.4375 2.7025 3.4375 4.0625 C3.623125 5.114375 3.80875 6.16625 4 7.25 C4.144375 8.178125 4.28875 9.10625 4.4375 10.0625 C3.4375 11.0625 3.4375 11.0625 1.58984375 11.16015625 C-0.4609375 11.12760417 -2.51171875 11.09505208 -4.5625 11.0625 C-4.58938151 9.41675434 -4.60884123 7.77088587 -4.625 6.125 C-4.63660156 5.20847656 -4.64820313 4.29195312 -4.66015625 3.34765625 C-4.49885955 -0.42668664 -3.92591522 0.06887571 0 0 Z " fill="#36568E" transform="translate(155.5625,186.9375)"/>
<path d="M0 0 C3.81051307 1.75567028 5.31622521 3.04312923 7 7 C7.88980169 12.61754319 7.09944607 17.41959793 4.35546875 22.40234375 C1.99225164 25.18780715 -0.46945103 25.45683862 -4 26 C-4 24 -4 24 -2.625 22.375 C-1 21 -1 21 1 21 C1 20.01 1 19.02 1 18 C1.66 17.67 2.32 17.34 3 17 C4.70922121 10.16311516 3.29326279 6.10596363 0 0 Z " fill="#114CB2" transform="translate(297,132)"/>
<path d="M0 0 C2 2 2 2 2 5 C0.35 4.67 -1.3 4.34 -3 4 C-2.67 4.99 -2.34 5.98 -2 7 C-0.68 6.67 0.64 6.34 2 6 C1.125 9.875 1.125 9.875 0 11 C-2.33944736 10.71269945 -4.6739143 10.38063221 -7 10 C-8.33359073 3.57451737 -8.33359073 3.57451737 -6.875 1.0625 C-4.403308 -0.33812547 -2.79844834 -0.35877543 0 0 Z " fill="#415E98" transform="translate(102,187)"/>
<path d="M0 0 C1.65 0.33 3.3 0.66 5 1 C5.66 3.97 6.32 6.94 7 10 C6.01 10.495 6.01 10.495 5 11 C4.01 10.34 3.02 9.68 2 9 C0.02 9.99 0.02 9.99 -2 11 C-2.66 10.34 -3.32 9.68 -4 9 C-2.68 6.03 -1.36 3.06 0 0 Z " fill="#37548E" transform="translate(253,187)"/>
<path d="M0 0 C0.99 0.33 1.98 0.66 3 1 C2.8818344 5.09362106 2.75759216 9.18700767 2.62768555 13.28027344 C2.58434154 14.6731259 2.54266604 16.06603131 2.50268555 17.45898438 C2.44497068 19.45976651 2.38078131 21.46035859 2.31640625 23.4609375 C2.27974854 24.66540527 2.24309082 25.86987305 2.20532227 27.11083984 C2 30 2 30 1 32 C0.34 32 -0.32 32 -1 32 C-1.11813543 21.27592816 -0.87157852 10.69240075 0 0 Z " fill="#3054B8" transform="translate(267,129)"/>
<path d="M0 0 C2 0 2 0 3.5 1.4375 C3.995 1.953125 4.49 2.46875 5 3 C5.66 3.33 6.32 3.66 7 4 C7 4.66 7 5.32 7 6 C7.66 6 8.32 6 9 6 C9.33 8.31 9.66 10.62 10 13 C10.99 13 11.98 13 13 13 C12.67 13.99 12.34 14.98 12 16 C9.66796875 15.78125 9.66796875 15.78125 7 15 C5.48828125 12.96875 5.48828125 12.96875 4.3125 10.5 C2.84638807 7.08580977 2.84638807 7.08580977 0 5 C0 3.35 0 1.7 0 0 Z " fill="#124EB2" transform="translate(180,157)"/>
<path d="M0 0 C2.475 0.495 2.475 0.495 5 1 C5 3.31 5 5.62 5 8 C6.65 8 8.3 8 10 8 C9.67 8.99 9.34 9.98 9 11 C2.84765625 11.09765625 2.84765625 11.09765625 1 11 C0 10 0 10 -0.09765625 7.71484375 C-0.08605469 6.79832031 -0.07445312 5.88179687 -0.0625 4.9375 C-0.05347656 4.01839844 -0.04445312 3.09929687 -0.03515625 2.15234375 C-0.02355469 1.44207031 -0.01195312 0.73179687 0 0 Z " fill="#3A5B92" transform="translate(225,187)"/>
<path d="M0 0 C0.33 0 0.66 0 1 0 C1.0501123 0.82725586 1.10022461 1.65451172 1.15185547 2.50683594 C1.3425259 5.58609863 1.54096505 8.66473559 1.74462891 11.74316406 C1.87349505 13.72683398 1.99344127 15.71107682 2.11328125 17.6953125 C2.19707031 18.94570312 2.28085938 20.19609375 2.3671875 21.484375 C2.44050293 22.63647461 2.51381836 23.78857422 2.58935547 24.97558594 C2.97653903 27.82720901 3.65488437 29.51164124 5 32 C4.625 34.25 4.625 34.25 4 36 C-0.90858544 29.810914 -0.34667397 23.62940765 -0.625 16 C-0.6765625 14.79859375 -0.728125 13.5971875 -0.78125 12.359375 C-0.82507813 11.20953125 -0.86890625 10.0596875 -0.9140625 8.875 C-0.9548291 7.82054687 -0.9955957 6.76609375 -1.03759766 5.6796875 C-1 3 -1 3 0 0 Z " fill="#2856A7" transform="translate(232,133)"/>
<path d="M0 0 C0.66 0.33 1.32 0.66 2 1 C1.84152588 1.5772583 1.68305176 2.1545166 1.51977539 2.74926758 C1.02719579 4.88223675 0.80193287 6.82985744 0.68359375 9.01171875 C0.62075195 10.14963867 0.62075195 10.14963867 0.55664062 11.31054688 C0.51732422 12.09494141 0.47800781 12.87933594 0.4375 13.6875 C0.39431641 14.45255859 0.35113281 15.21761719 0.30664062 16.00585938 C0.05863978 20.67851015 -0.00021871 25.29105786 0.17993164 29.96801758 C-0.03156041 32.35641419 -0.81898414 33.93300467 -2 36 C-2.04936883 31.19451403 -2.08570443 26.38917506 -2.10986328 21.58349609 C-2.11993254 19.94805328 -2.13358881 18.31262851 -2.15087891 16.67724609 C-2.17508705 14.3290563 -2.18647357 11.98110412 -2.1953125 9.6328125 C-2.21079636 8.53273361 -2.21079636 8.53273361 -2.22659302 7.41043091 C-2.22699368 5.60537303 -2.12212755 3.8009217 -2 2 C-1.34 1.34 -0.68 0.68 0 0 Z " fill="#325E9E" transform="translate(267,126)"/>
<path d="M0 0 C2.97 0 5.94 0 9 0 C9.33 0.99 9.66 1.98 10 3 C9.01 3 8.02 3 7 3 C7 5.31 7 7.62 7 10 C5.35 10 3.7 10 2 10 C2 7.69 2 5.38 2 3 C1.01 2.67 0.02 2.34 -1 2 C-0.67 1.34 -0.34 0.68 0 0 Z " fill="#3F5992" transform="translate(177,187)"/>
<path d="M0 0 C2.0625 0.4375 2.0625 0.4375 4 1 C4 3.31 4 5.62 4 8 C5.65 8.33 7.3 8.66 9 9 C8.67 9.66 8.34 10.32 8 11 C1.25 11.125 1.25 11.125 -1 10 C-1.02689216 8.52093108 -1.04634621 7.04172517 -1.0625 5.5625 C-1.07410156 4.73878906 -1.08570313 3.91507813 -1.09765625 3.06640625 C-1 1 -1 1 0 0 Z " fill="#3A5999" transform="translate(239,187)"/>
<path d="M0 0 C0.33 0 0.66 0 1 0 C1.19622046 4.12463416 1.38050216 8.24971573 1.5625 12.375 C1.61857422 13.550625 1.67464844 14.72625 1.73242188 15.9375 C1.78076172 17.05898437 1.82910156 18.18046875 1.87890625 19.3359375 C1.9260376 20.37282715 1.97316895 21.4097168 2.02172852 22.47802734 C2 25 2 25 1 27 C0.34 27 -0.32 27 -1 27 C-1.02886537 22.68751391 -1.04675255 18.37505238 -1.0625 14.0625 C-1.07087891 12.83080078 -1.07925781 11.59910156 -1.08789062 10.33007812 C-1.09111328 9.16025391 -1.09433594 7.99042969 -1.09765625 6.78515625 C-1.10289307 5.70113525 -1.10812988 4.61711426 -1.11352539 3.50024414 C-1 1 -1 1 0 0 Z " fill="#36517D" transform="translate(106,103)"/>
<path d="M0 0 C3.3 0 6.6 0 10 0 C10 0.99 10 1.98 10 3 C9.01 3.495 9.01 3.495 8 4 C7.34227572 7.02934491 7.34227572 7.02934491 7 10 C5.68 10 4.36 10 3 10 C3 7.69 3 5.38 3 3 C2.34 2.67 1.68 2.34 1 2 C0.67 1.34 0.34 0.68 0 0 Z " fill="#4B6288" transform="translate(302,187)"/>
<path d="M0 0 C0.66 0.33 1.32 0.66 2 1 C1.54109375 1.51949219 1.0821875 2.03898437 0.609375 2.57421875 C-2.68382608 6.31712166 -5.92952189 10.06978801 -9 14 C-9.99 13.67 -10.98 13.34 -12 13 C-11.34 13 -10.68 13 -10 13 C-10.66 12.34 -11.32 11.68 -12 11 C-12.66 11 -13.32 11 -14 11 C-13.67 10.01 -13.34 9.02 -13 8 C-11.02 7.67 -9.04 7.34 -7 7 C-7 6.34 -7 5.68 -7 5 C-6.360625 4.896875 -5.72125 4.79375 -5.0625 4.6875 C-4.0415625 4.3471875 -4.0415625 4.3471875 -3 4 C-2.67 3.01 -2.34 2.02 -2 1 C-1.34 0.67 -0.68 0.34 0 0 Z " fill="#133980" transform="translate(80,62)"/>
<path d="M0 0 C0.33 0 0.66 0 1 0 C1 2.31 1 4.62 1 7 C1.66 7 2.32 7 3 7 C3 11.95 3 16.9 3 22 C2.01 22 1.02 22 0 22 C-1.26798493 17.31315199 -0.91105063 12.96705063 -0.5625 8.1875 C-0.51029297 7.39923828 -0.45808594 6.61097656 -0.40429688 5.79882812 C-0.27540731 3.86548471 -0.13850506 1.93267836 0 0 Z " fill="#285CB4" transform="translate(190,148)"/>
<path d="M0 0 C3.375 0.5625 3.375 0.5625 7 2 C8.4375 5.625 8.4375 5.625 9 9 C8.39414062 8.65066406 7.78828125 8.30132812 7.1640625 7.94140625 C1.04585798 4.61875057 -4.0429098 3.16282552 -11 3 C-11 2.67 -11 2.34 -11 2 C-7.37 2 -3.74 2 0 2 C0 1.34 0 0.68 0 0 Z " fill="#1D4FA9" transform="translate(290,127)"/>
<path d="M0 0 C1.134375 0.020625 2.26875 0.04125 3.4375 0.0625 C4.4275 2.0425 5.4175 4.0225 6.4375 6.0625 C4.7875 6.0625 3.1375 6.0625 1.4375 6.0625 C1.1075 5.4025 0.7775 4.7425 0.4375 4.0625 C-2.68447478 5.3714572 -2.68447478 5.3714572 -4.5625 8.0625 C-4.60491723 5.72955225 -4.60342937 3.39547433 -4.5625 1.0625 C-3.5625 0.0625 -3.5625 0.0625 0 0 Z " fill="#204EA8" transform="translate(162.5625,125.9375)"/>
<path d="M0 0 C2.49361571 1.20381448 4.68143083 2.45428722 7 4 C9.64632287 3.6878236 9.64632287 3.6878236 12 3 C12 5.33333333 12 7.66666667 12 10 C14.41666771 12.75041666 14.41666771 12.75041666 17 15 C9.96948907 11.80573668 4.6843739 6.00185406 0 0 Z " fill="#4C7BCF" transform="translate(67,205)"/>
<path d="M0 0 C1.8125 2 1.8125 2 3 4 C1.35 4 -0.3 4 -2 4 C-2.66 5.32 -3.32 6.64 -4 8 C-5.32 8 -6.64 8 -8 8 C-7.74438677 5.6568787 -7.40729228 3.32156597 -7 1 C-4.4254716 -0.2872642 -2.85291355 -0.34791629 0 0 Z " fill="#3C5991" transform="translate(392,187)"/>
<path d="M0 0 C0.99 0 1.98 0 3 0 C3 3.63 3 7.26 3 11 C0 12 0 12 -2.1875 11.0625 C-2.785625 10.711875 -3.38375 10.36125 -4 10 C-3.34 9.67 -2.68 9.34 -2 9 C-1.5720382 7.13690908 -1.5720382 7.13690908 -1.4375 5 C-1.09589041 1.09589041 -1.09589041 1.09589041 0 0 Z " fill="#164EB4" transform="translate(198,127)"/>
<path d="M0 0 C0 1.32 0 2.64 0 4 C0.33 4.66 0.66 5.32 1 6 C-1.31 6.33 -3.62 6.66 -6 7 C-8 4 -8 4 -8 1 C-5.07175348 0.02391783 -3.04386724 -0.08226668 0 0 Z " fill="#39558D" transform="translate(324,191)"/>
<path d="M0 0 C1.2684375 0.309375 1.2684375 0.309375 2.5625 0.625 C3.8825 0.625 5.2025 0.625 6.5625 0.625 C3.87408141 2.87745881 1.91608125 4.50713958 -1.4375 5.625 C-1.4375 4.965 -1.4375 4.305 -1.4375 3.625 C-0.7775 3.625 -0.1175 3.625 0.5625 3.625 C0.5625 2.965 0.5625 2.305 0.5625 1.625 C-0.26894531 2.18380859 -0.26894531 2.18380859 -1.1171875 2.75390625 C-1.84164062 3.22699219 -2.56609375 3.70007812 -3.3125 4.1875 C-4.03179687 4.66316406 -4.75109375 5.13882813 -5.4921875 5.62890625 C-6.13414063 5.95761719 -6.77609375 6.28632812 -7.4375 6.625 C-8.0975 6.295 -8.7575 5.965 -9.4375 5.625 C-3.48214286 -0.53571429 -3.48214286 -0.53571429 0 0 Z " fill="#2D4E87" transform="translate(93.4375,51.375)"/>
<path d="M0 0 C0.99 0.33 1.98 0.66 3 1 C2.52797514 5.24822374 0.03344482 7.19989709 -3 10 C-3.66 9.34 -4.32 8.68 -5 8 C-3.62845496 5.04590299 -2.01136276 2.55991624 0 0 Z " fill="#335DAF" transform="translate(212,136)"/>
<path d="M0 0 C0.66 0.33 1.32 0.66 2 1 C2 1.66 2 2.32 2 3 C3.32 3.66 4.64 4.32 6 5 C5.34 5 4.68 5 4 5 C2.35199144 8.66447432 1.66419027 11.81203466 1.375 15.8125 C1.30023438 16.78832031 1.22546875 17.76414063 1.1484375 18.76953125 C1.09945312 19.50558594 1.05046875 20.24164063 1 21 C0.67 21 0.34 21 0 21 C-0.71148265 13.81949816 -1.25818438 7.12971149 0 0 Z " fill="#2958AC" transform="translate(43,121)"/>
<path d="M0 0 C0.66 0 1.32 0 2 0 C2 0.66 2 1.32 2 2 C2.99 2.33 3.98 2.66 5 3 C5 3.66 5 4.32 5 5 C5.66 5.33 6.32 5.66 7 6 C9 9 9 9 9 12 C10.65 12 12.3 12 14 12 C14.33 12.66 14.66 13.32 15 14 C12.08570041 14.118951 10.62751461 14.13842026 8 13 C4.49804895 9.14716584 1.64975066 4.94925198 0 0 Z " fill="#1E52A9" transform="translate(178,160)"/>
<path d="M0 0 C5.36842105 -0.35789474 5.36842105 -0.35789474 7.875 1.0625 C9.58196395 4.00227124 9.18799766 6.67870803 9 10 C7.35 10 5.7 10 4 10 C3.34 8.35 2.68 6.7 2 5 C3.32 5 4.64 5 6 5 C6.33 4.34 6.66 3.68 7 3 C4.69 2.34 2.38 1.68 0 1 C0 0.67 0 0.34 0 0 Z " fill="#345184" transform="translate(399,187)"/>
<path d="M0 0 C2 1.1875 2 1.1875 4 3 C4.5 5.375 4.5 5.375 4 8 C2.125 10.8125 2.125 10.8125 0 13 C-0.66 13 -1.32 13 -2 13 C-2 12.01 -2 11.02 -2 10 C-1.34 9.67 -0.68 9.34 0 9 C-0.185625 7.700625 -0.37125 6.40125 -0.5625 5.0625 C-0.87890625 2.84765625 -0.87890625 2.84765625 -1 1 C-0.67 0.67 -0.34 0.34 0 0 Z " fill="#335494" transform="translate(115,187)"/>
<path d="M0 0 C1.134375 0.020625 2.26875 0.04125 3.4375 0.0625 C3.4375 1.0525 3.4375 2.0425 3.4375 3.0625 C0.4675 2.5675 0.4675 2.5675 -2.5625 2.0625 C-2.5625 4.3725 -2.5625 6.6825 -2.5625 9.0625 C0.0775 8.7325 2.7175 8.4025 5.4375 8.0625 C5.4375 8.7225 5.4375 9.3825 5.4375 10.0625 C-1.3125 11.1875 -1.3125 11.1875 -3.5625 10.0625 C-4.01171875 8.03125 -4.01171875 8.03125 -4.25 5.5625 C-4.33636719 4.7478125 -4.42273438 3.933125 -4.51171875 3.09375 C-4.52847656 2.4234375 -4.54523438 1.753125 -4.5625 1.0625 C-3.5625 0.0625 -3.5625 0.0625 0 0 Z " fill="#384D86" transform="translate(280.5625,186.9375)"/>
<path d="M0 0 C0.598125 0.165 1.19625 0.33 1.8125 0.5 C4.25988354 1.05940195 5.63996734 0.75858193 8 0 C8 0.99 8 1.98 8 3 C5.69 3.33 3.38 3.66 1 4 C1 5.65 1 7.3 1 9 C1.66 9.33 2.32 9.66 3 10 C1.68 10 0.36 10 -1 10 C-1.02689216 8.52093108 -1.04634621 7.04172517 -1.0625 5.5625 C-1.07410156 4.73878906 -1.08570313 3.91507813 -1.09765625 3.06640625 C-1 1 -1 1 0 0 Z " fill="#435989" transform="translate(350,187)"/>
<path d="M0 0 C1.03125 0.639375 2.0625 1.27875 3.125 1.9375 C6.38609658 3.81711371 9.22046944 4.63126531 13 5 C13 5.33 13 5.66 13 6 C11.741875 6.020625 10.48375 6.04125 9.1875 6.0625 C8.47980469 6.07410156 7.77210938 6.08570313 7.04296875 6.09765625 C5 6 5 6 2 5 C2.33 5.99 2.66 6.98 3 8 C-0.65316671 6.75023244 -1.78065836 6.32901247 -4 3 C-2.68 3.33 -1.36 3.66 0 4 C0 2.68 0 1.36 0 0 Z " fill="#224D97" transform="translate(242,167)"/>
<path d="M0 0 C0.33 0.66 0.66 1.32 1 2 C2.98 2 4.96 2 7 2 C7.33 2.99 7.66 3.98 8 5 C9.32 5.33 10.64 5.66 12 6 C8.04 6 4.08 6 0 6 C0 4.02 0 2.04 0 0 Z " fill="#3B6CCC" transform="translate(106,168)"/>
<path d="M0 0 C-0.33 1.32 -0.66 2.64 -1 4 C-1.639375 4.12375 -2.27875 4.2475 -2.9375 4.375 C-3.9584375 4.684375 -3.9584375 4.684375 -5 5 C-5.33 5.66 -5.66 6.32 -6 7 C-7.65 6.67 -9.3 6.34 -11 6 C-10.34 5.67 -9.68 5.34 -9 5 C-9 4.34 -9 3.68 -9 3 C-5.63316085 0.56839395 -4.26649636 0 0 0 Z " fill="#3161AD" transform="translate(264,168)"/>
<path d="M0 0 C0.66 0 1.32 0 2 0 C2 0.66 2 1.32 2 2 C2.66 2 3.32 2 4 2 C4.33 4.31 4.66 6.62 5 9 C4.01 9.66 3.02 10.32 2 11 C1.690625 9.906875 1.38125 8.81375 1.0625 7.6875 C0.41662103 5.44592006 -0.2623117 3.2130649 -1 1 C-0.67 0.67 -0.34 0.34 0 0 Z " fill="#3168C7" transform="translate(58,167)"/>
<path d="M0 0 C2 1.3125 2 1.3125 4 3 C4 3.99 4 4.98 4 6 C2.02 6.99 0.04 7.98 -2 9 C-2.6875 6.1875 -2.6875 6.1875 -3 3 C-1.5625 1.125 -1.5625 1.125 0 0 Z " fill="#184796" transform="translate(54,96)"/>
<path d="M0 0 C2.0625 0.4375 2.0625 0.4375 4 1 C4.625 2.875 4.625 2.875 5 5 C4.34 5.66 3.68 6.32 3 7 C0.525 6.01 0.525 6.01 -2 5 C-1.125 1.125 -1.125 1.125 0 0 Z " fill="#3C5A9A" transform="translate(293,187)"/>
<path d="M0 0 C0 0.66 0 1.32 0 2 C-0.66 2 -1.32 2 -2 2 C-2.0825 2.5775 -2.165 3.155 -2.25 3.75 C-3.2379616 6.71388479 -4.53822058 8.10091302 -7 10 C-9.25 9.75 -9.25 9.75 -11 9 C-9.71034824 7.62437146 -8.37310707 6.29233607 -7 5 C-6.34 5 -5.68 5 -5 5 C-4.814375 4.0409375 -4.814375 4.0409375 -4.625 3.0625 C-4.41875 2.381875 -4.2125 1.70125 -4 1 C-2 0 -2 0 0 0 Z " fill="#25417D" transform="translate(94,53)"/>
<path d="M0 0 C-1.55500981 3.81684226 -4.03595495 6.19195732 -7 9 C-7.33 8.01 -7.66 7.02 -8 6 C-8.66 5.67 -9.32 5.34 -10 5 C-8.71186658 4.16121545 -7.41936744 3.32913217 -6.125 2.5 C-5.40570313 2.0359375 -4.68640625 1.571875 -3.9453125 1.09375 C-2 0 -2 0 0 0 Z " fill="#5E7CB5" transform="translate(212,206)"/>
<path d="M0 0 C0.66 0 1.32 0 2 0 C2 0.99 2 1.98 2 3 C2.99 3.33 3.98 3.66 5 4 C3.02 4.99 3.02 4.99 1 6 C1 7.32 1 8.64 1 10 C-0.32 9.34 -1.64 8.68 -3 8 C-2.01 5.36 -1.02 2.72 0 0 Z " fill="#4056A0" transform="translate(252,188)"/>
<path d="M0 0 C2 2 2 2 2 5 C-1.3 4.67 -4.6 4.34 -8 4 C-7.67 3.01 -7.34 2.02 -7 1 C-4.48718205 -0.25640898 -2.78302919 -0.20872719 0 0 Z " fill="#485D8E" transform="translate(102,187)"/>
<path d="M0 0 C4.2177222 3.10126632 8.05855573 6.6434279 11 11 C11 11.99 11 12.98 11 14 C10.34 14 9.68 14 9 14 C8.773125 13.443125 8.54625 12.88625 8.3125 12.3125 C7.030061 9.80327336 7.030061 9.80327336 4.5 7.5625 C2.0481606 5.04936462 1.03839869 3.30399584 0 0 Z " fill="#456FB1" transform="translate(72,188)"/>
<path d="M0 0 C0.33 0 0.66 0 1 0 C2.125 7.75 2.125 7.75 1 10 C0.7724985 11.87056791 0.59037189 13.74685958 0.4375 15.625 C0.35371094 16.62789062 0.26992187 17.63078125 0.18359375 18.6640625 C0.12300781 19.43492187 0.06242187 20.20578125 0 21 C-0.33 21 -0.66 21 -1 21 C-1.02710123 18.4374282 -1.04688771 15.87514635 -1.0625 13.3125 C-1.07087891 12.59126953 -1.07925781 11.87003906 -1.08789062 11.12695312 C-1.10543632 7.28444618 -0.93524221 3.73360474 0 0 Z " fill="#3163B8" transform="translate(107,143)"/>
<path d="M0 0 C1.32 0 2.64 0 4 0 C3.43628586 3.26954202 2.50037734 4.82575883 0 7 C-0.99 6.67 -1.98 6.34 -3 6 C-2.67 4.68 -2.34 3.36 -2 2 C-1.34 2 -0.68 2 0 2 C0 1.34 0 0.68 0 0 Z " fill="#5F84C8" transform="translate(200,212)"/>
<path d="M0 0 C3.93345152 1.31115051 4.32374076 2.84212778 6.25 6.4375 C6.79140625 7.42621094 7.3328125 8.41492188 7.890625 9.43359375 C8.25671875 10.28050781 8.6228125 11.12742188 9 12 C8.67 12.66 8.34 13.32 8 14 C6.84669053 12.42210402 5.70262073 10.8374518 4.5625 9.25 C3.92441406 8.36828125 3.28632812 7.4865625 2.62890625 6.578125 C1.1724919 4.27300875 0.44068179 2.65650428 0 0 Z " fill="#456EBC" transform="translate(53,185)"/>
<path d="M0 0 C1.32 0 2.64 0 4 0 C4 1.65 4 3.3 4 5 C3.34 5 2.68 5 2 5 C2 5.66 2 6.32 2 7 C2.66 7.33 3.32 7.66 4 8 C3.34 8.66 2.68 9.32 2 10 C-0.09350689 6.5980513 -0.17942163 3.94727588 0 0 Z " fill="#315986" transform="translate(411,190)"/>
<path d="M0 0 C0.66 0.33 1.32 0.66 2 1 C2 6.28 2 11.56 2 17 C1.67 17 1.34 17 1 17 C0.67 13.7 0.34 10.4 0 7 C-0.33 7 -0.66 7 -1 7 C-1.04254356 5.00045254 -1.04080783 2.99958364 -1 1 C-0.67 0.67 -0.34 0.34 0 0 Z " fill="#1C45C4" transform="translate(232,127)"/>
<path d="M0 0 C1.98 0.99 1.98 0.99 4 2 C4 2.66 4 3.32 4 4 C4.66 4 5.32 4 6 4 C6.33 5.32 6.66 6.64 7 8 C4.69 7.01 2.38 6.02 0 5 C0 3.35 0 1.7 0 0 Z " fill="#114EB4" transform="translate(214,159)"/>
<path d="M0 0 C2.105184 3.157776 2.25289344 3.95397134 2.1875 7.5625 C2.18105469 8.34753906 2.17460937 9.13257813 2.16796875 9.94140625 C2 12 2 12 1 14 C0.34 14 -0.32 14 -1 14 C-0.67 9.38 -0.34 4.76 0 0 Z " fill="#3962B6" transform="translate(267,147)"/>
<path d="M0 0 C0.33 0.99 0.66 1.98 1 3 C1.66 3 2.32 3 3 3 C2.67 3.66 2.34 4.32 2 5 C1.34 5 0.68 5 0 5 C-0.33 6.32 -0.66 7.64 -1 9 C-1.66 9 -2.32 9 -3 9 C-4 6 -4 6 -3.1875 3.375 C-2 1 -2 1 0 0 Z " fill="#3063BA" transform="translate(161,131)"/>
<path d="M0 0 C3.96 1.98 3.96 1.98 8 4 C8 4.66 8 5.32 8 6 C8.99 6.33 9.98 6.66 11 7 C9 8 9 8 6.0625 7.25 C3.23898521 6.09754499 1.75807568 5.44177177 0 3 C0 2.01 0 1.02 0 0 Z " fill="#446DC9" transform="translate(92,208)"/>
<path d="M0 0 C0.66 0.99 1.32 1.98 2 3 C1.23056641 6.15467773 0.67047831 7.58588104 -2.125 9.3125 C-3.053125 9.6528125 -3.053125 9.6528125 -4 10 C-2.8905928 6.51329166 -1.73662334 3.22515763 0 0 Z " fill="#2A4A87" transform="translate(52,91)"/>
<path d="M0 0 C2.475 0.495 2.475 0.495 5 1 C5 2.32 5 3.64 5 5 C3.68 5 2.36 5 1 5 C0.67 5.66 0.34 6.32 0 7 C0 4.69 0 2.38 0 0 Z " fill="#3A558A" transform="translate(188,194)"/>
<path d="M0 0 C0.99 0.495 0.99 0.495 2 1 C1.67 1.66 1.34 2.32 1 3 C2.98 3.495 2.98 3.495 5 4 C5.33 3.34 5.66 2.68 6 2 C6 3.32 6 4.64 6 6 C4.125 6.625 4.125 6.625 2 7 C0 5 0 5 -0.125 2.375 C-0.08375 1.59125 -0.0425 0.8075 0 0 Z " fill="#3E5DA0" transform="translate(109,191)"/>
<path d="M0 0 C1.32 0 2.64 0 4 0 C3.67 2.31 3.34 4.62 3 7 C2.01 7 1.02 7 0 7 C0 4.69 0 2.38 0 0 Z " fill="#4664A5" transform="translate(306,188)"/>
<path d="M0 0 C0.33 0.66 0.66 1.32 1 2 C3.02463255 2.65213292 3.02463255 2.65213292 5 3 C4.67 3.99 4.34 4.98 4 6 C2.35 6 0.7 6 -1 6 C-1.042721 4.33388095 -1.04063832 2.66617115 -1 1 C-0.67 0.67 -0.34 0.34 0 0 Z " fill="#39507B" transform="translate(338,185)"/>
<path d="M0 0 C0.33 0.99 0.66 1.98 1 3 C0.01 3.66 -0.98 4.32 -2 5 C-2.72965366 7.56282742 -2.72965366 7.56282742 -3 10 C-4.85776765 6.86501708 -5.20140476 4.62528568 -5 1 C-2 0 -2 0 0 0 Z " fill="#264FB9" transform="translate(110,138)"/>
<path d="M0 0 C1.65 0 3.3 0 5 0 C-0.78571429 4.82142857 -0.78571429 4.82142857 -4 6 C-4.99 5.67 -5.98 5.34 -7 5 C-5 3 -5 3 -2.9375 2.5 C-2.298125 2.335 -1.65875 2.17 -1 2 C-0.67 1.34 -0.34 0.68 0 0 Z " fill="#597DCB" transform="translate(187,223)"/>
<path d="M0 0 C0.33 0 0.66 0 1 0 C1.33 1.65 1.66 3.3 2 5 C2.33 5 2.66 5 3 5 C3.125 10.75 3.125 10.75 2 13 C1.34 13 0.68 13 0 13 C0 8.71 0 4.42 0 0 Z " fill="#124C78" transform="translate(105,117)"/>
<path d="M0 0 C7.42857143 -0.28571429 7.42857143 -0.28571429 11 2 C10.67 2.66 10.34 3.32 10 4 C8.72125 3.71125 7.4425 3.4225 6.125 3.125 C5.40570313 2.96257812 4.68640625 2.80015625 3.9453125 2.6328125 C2 2 2 2 0 0 Z " fill="#4E87DD" transform="translate(96,227)"/>
<path d="M0 0 C2 3 2 3 3 6 C0.6875 6.25 0.6875 6.25 -2 6 C-3.8125 4 -3.8125 4 -5 2 C-3.35 2 -1.7 2 0 2 C0 1.34 0 0.68 0 0 Z " fill="#395488" transform="translate(343,191)"/>
<path d="M0 0 C0.33 0 0.66 0 1 0 C1.33 1.65 1.66 3.3 2 5 C3.32 4.34 4.64 3.68 6 3 C5.34 4.65 4.68 6.3 4 8 C2.35 7.67 0.7 7.34 -1 7 C-0.67 4.69 -0.34 2.38 0 0 Z " fill="#224C9E" transform="translate(202,140)"/>
<path d="M0 0 C-0.33 0.99 -0.66 1.98 -1 3 C-3.64 3 -6.28 3 -9 3 C-9 2.34 -9 1.68 -9 1 C-6.04335481 -0.4783226 -3.25770263 -0.06032783 0 0 Z " fill="#1F5179" transform="translate(160,195)"/>
<path d="M0 0 C2.97 0 5.94 0 9 0 C9.33 0.99 9.66 1.98 10 3 C9.01 3 8.02 3 7 3 C7 2.34 7 1.68 7 1 C4.69 1.66 2.38 2.32 0 3 C0 2.01 0 1.02 0 0 Z " fill="#485F82" transform="translate(177,187)"/>
<path d="M0 0 C1.65 0 3.3 0 5 0 C5.33 1.65 5.66 3.3 6 5 C4.68 4.67 3.36 4.34 2 4 C2 3.34 2 2.68 2 2 C1.34 2 0.68 2 0 2 C0 1.34 0 0.68 0 0 Z " fill="#2B57A8" transform="translate(150,170)"/>
<path d="M0 0 C0.33 0.99 0.66 1.98 1 3 C1.66 3.33 2.32 3.66 3 4 C3 4.66 3 5.32 3 6 C1.68 6.33 0.36 6.66 -1 7 C-1.625 4.625 -1.625 4.625 -2 2 C-1.34 1.34 -0.68 0.68 0 0 Z " fill="#1B4394" transform="translate(59,84)"/>
<path d="M0 0 C0.33 0 0.66 0 1 0 C1.1875 3.375 1.1875 3.375 1 7 C-2 9 -2 9 -5 9 C-4.34 7.68 -3.68 6.36 -3 5 C-2.01 5.33 -1.02 5.66 0 6 C0 4.02 0 2.04 0 0 Z " fill="#3C558E" transform="translate(221,189)"/>
<path d="M0 0 C2.2477975 2.05233685 3.0022242 3.00667261 4 6 C3.67 6.66 3.34 7.32 3 8 C2.01 7.67 1.02 7.34 0 7 C0 4.69 0 2.38 0 0 Z " fill="#3856A3" transform="translate(213,190)"/>
<path d="M0 0 C0.33 0 0.66 0 1 0 C0.67 2.64 0.34 5.28 0 8 C-0.99 8 -1.98 8 -3 8 C-2.34 7.01 -1.68 6.02 -1 5 C-1.99 4.67 -2.98 4.34 -4 4 C-3.01 3.67 -2.02 3.34 -1 3 C-0.67 2.01 -0.34 1.02 0 0 Z " fill="#4A679E" transform="translate(437,189)"/>
<path d="M0 0 C1.2065625 0.0309375 1.2065625 0.0309375 2.4375 0.0625 C2.7675 1.0525 3.0975 2.0425 3.4375 3.0625 C1.625 3.75 1.625 3.75 -0.5625 4.0625 C-2.3125 2.625 -2.3125 2.625 -3.5625 1.0625 C-2.5625 0.0625 -2.5625 0.0625 0 0 Z " fill="#405994" transform="translate(204.5625,187.9375)"/>
<path d="M0 0 C-1.75 4.875 -1.75 4.875 -4 6 C-4 6.66 -4 7.32 -4 8 C-4.66 8 -5.32 8 -6 8 C-5.62403791 5.21788056 -5.32681541 3.4120716 -3.5625 1.1875 C-2 0 -2 0 0 0 Z " fill="#315795" transform="translate(438,187)"/>
<path d="M0 0 C6.0546875 -0.1953125 6.0546875 -0.1953125 8 0 C8.66 0.66 9.32 1.32 10 2 C9.67 2.99 9.34 3.98 9 5 C8.67 4.34 8.34 3.68 8 3 C6.10466658 2.53476937 6.10466658 2.53476937 3.9375 2.375 C2.638125 2.25125 1.33875 2.1275 0 2 C0 1.34 0 0.68 0 0 Z " fill="#3C537F" transform="translate(263,187)"/>
<path d="M0 0 C0.66 0.33 1.32 0.66 2 1 C2 3.31 2 5.62 2 8 C1.01 8.495 1.01 8.495 0 9 C-1.36623674 6.26752652 -1.128426 4.01801098 -1 1 C-0.67 0.67 -0.34 0.34 0 0 Z " fill="#3668C9" transform="translate(52,177)"/>
<path d="M0 0 C0.66 0 1.32 0 2 0 C2 0.66 2 1.32 2 2 C2.99 2.33 3.98 2.66 5 3 C5 3.66 5 4.32 5 5 C5.66 5.33 6.32 5.66 7 6 C6.01 7.485 6.01 7.485 5 9 C3.35 6.03 1.7 3.06 0 0 Z " fill="#274CA3" transform="translate(178,160)"/>
<path d="M0 0 C0.66 0.33 1.32 0.66 2 1 C1.40072174 4.35595828 0.15377564 6.37801226 -2 9 C-2.125 5.625 -2.125 5.625 -2 2 C-1.34 1.34 -0.68 0.68 0 0 Z " fill="#3C548A" transform="translate(267,126)"/>
<path d="M0 0 C2.64 0 5.28 0 8 0 C7.67 0.99 7.34 1.98 7 3 C4.69 2.67 2.38 2.34 0 2 C0 1.34 0 0.68 0 0 Z " fill="#3D5095" transform="translate(227,195)"/>
<path d="M0 0 C0.66 0.33 1.32 0.66 2 1 C2.3125 3.3125 2.3125 3.3125 2 6 C-0.5 7.8125 -0.5 7.8125 -3 9 C-2.01 6.03 -1.02 3.06 0 0 Z " fill="#475E83" transform="translate(371,189)"/>
<path d="M0 0 C-2.68841859 2.25245881 -4.64641875 3.88213958 -8 5 C-8 4.34 -8 3.68 -8 3 C-7.34 3 -6.68 3 -6 3 C-6 2.01 -6 1.02 -6 0 C-3 -1 -3 -1 0 0 Z " fill="#2B4C76" transform="translate(100,52)"/>
<path d="M0 0 C0.66 0.66 1.32 1.32 2 2 C-0.39509338 4.89932357 -2.31245243 5.50168276 -6 6 C-5.34 5.67 -4.68 5.34 -4 5 C-3.67 4.01 -3.34 3.02 -3 2 C-2.01 2 -1.02 2 0 2 C0 1.34 0 0.68 0 0 Z " fill="#5081DB" transform="translate(179,226)"/>
<path d="M0 0 C1.98 1.65 3.96 3.3 6 5 C4.125 5.625 4.125 5.625 2 6 C1.34 5.34 0.68 4.68 0 4 C0 2.68 0 1.36 0 0 Z " fill="#426DC3" transform="translate(84,201)"/>
<path d="M0 0 C0.66 0.66 1.32 1.32 2 2 C1.625 4.125 1.625 4.125 1 6 C-2.875 4.25 -2.875 4.25 -4 2 C-2.68 1.34 -1.36 0.68 0 0 Z " fill="#274EA2" transform="translate(392,190)"/>
<path d="M0 0 C0.33 0.66 0.66 1.32 1 2 C3.02463255 2.65213292 3.02463255 2.65213292 5 3 C5 3.99 5 4.98 5 6 C3.68 6 2.36 6 1 6 C0.67 4.02 0.34 2.04 0 0 Z " fill="#4063A6" transform="translate(350,190)"/>
<path d="M0 0 C0.99 0.33 1.98 0.66 3 1 C2.67 2.98 2.34 4.96 2 7 C1.34 7 0.68 7 0 7 C0 4.69 0 2.38 0 0 Z " fill="#4A68A3" transform="translate(364,189)"/>
<path d="M0 0 C0.99 0 1.98 0 3 0 C3 1.98 3 3.96 3 6 C2.01 6 1.02 6 0 6 C0 4.02 0 2.04 0 0 Z " fill="#375AA7" transform="translate(218,189)"/>
<path d="M0 0 C1.98 0 3.96 0 6 0 C6.33 0.99 6.66 1.98 7 3 C5.68 3.33 4.36 3.66 3 4 C2.01 2.68 1.02 1.36 0 0 Z " fill="#3F5996" transform="translate(167,188)"/>
<path d="M0 0 C1.32 0 2.64 0 4 0 C3.625 1.9375 3.625 1.9375 3 4 C2.01 4.495 2.01 4.495 1 5 C0.34 4.67 -0.32 4.34 -1 4 C-0.67 2.68 -0.34 1.36 0 0 Z " fill="#224E82" transform="translate(430,187)"/>
<path d="M0 0 C6.75 1.875 6.75 1.875 9 3 C9 3.66 9 4.32 9 5 C5.22454612 3.90931332 2.52956528 3.0916909 0 0 Z " fill="#5580CF" transform="translate(87,222)"/>
<path d="M0 0 C0 0.66 0 1.32 0 2 C-2.64 2 -5.28 2 -8 2 C-8 1.34 -8 0.68 -8 0 C-2.25 -1.125 -2.25 -1.125 0 0 Z " fill="#4A82DD" transform="translate(192,221)"/>
<path d="M0 0 C1.32 0 2.64 0 4 0 C4 0.66 4 1.32 4 2 C3.34 2 2.68 2 2 2 C2.33 3.32 2.66 4.64 3 6 C2.34 6 1.68 6 1 6 C0.34 4.35 -0.32 2.7 -1 1 C-0.67 0.67 -0.34 0.34 0 0 Z " fill="#3D60A0" transform="translate(180,188)"/>
<path d="M0 0 C0 0.66 0 1.32 0 2 C-3 4 -3 4 -6 4 C-6 3.01 -6 2.02 -6 1 C-4 0 -4 0 0 0 Z " fill="#4364A0" transform="translate(322,188)"/>
<path d="M0 0 C0.66 0 1.32 0 2 0 C2 0.66 2 1.32 2 2 C2.99 2.33 3.98 2.66 5 3 C5.33 4.98 5.66 6.96 6 9 C3.59927045 6.11912454 1.52708963 3.43595166 0 0 Z " fill="#22539F" transform="translate(164,137)"/>
<path d="M0 0 C1.32 0.33 2.64 0.66 4 1 C3.01 2.98 2.02 4.96 1 7 C0.67 7 0.34 7 0 7 C0 4.69 0 2.38 0 0 Z " fill="#1A4CAD" transform="translate(154,137)"/>
<path d="M0 0 C1.98 0.99 1.98 0.99 4 2 C4 4.97 4 7.94 4 11 C3.67 11 3.34 11 3 11 C2.51171875 9.01432292 2.0234375 7.02864583 1.53515625 5.04296875 C1.08989295 3.34316798 0.55566015 1.66698046 0 0 Z " fill="#28539A" transform="translate(296,135)"/>
<path d="M0 0 C1.67542976 0.28604898 3.34385343 0.61781233 5 1 C4.34 2.32 3.68 3.64 3 5 C2.01 4.67 1.02 4.34 0 4 C-0.33 3.01 -0.66 2.02 -1 1 C-0.67 0.67 -0.34 0.34 0 0 Z " fill="#2C62A1" transform="translate(214,134)"/>
<path d="M0 0 C0.66 0 1.32 0 2 0 C2.33 2.31 2.66 4.62 3 7 C2.01 6.67 1.02 6.34 0 6 C0 4.02 0 2.04 0 0 Z " fill="#2A5CB0" transform="translate(191,128)"/>
</svg>
